<?xml version="1.0" standalone="no"?>
<!DOCTYPE svg PUBLIC "-//W3C//DTD SVG 1.1//EN" "http://www.w3.org/Graphics/SVG/1.1/DTD/svg11.dtd">
<svg version="1.1" width="1200" height="294" onload="init(evt)" viewBox="0 0 1200 294" xmlns="http://www.w3.org/2000/svg" xmlns:xlink="http://www.w3.org/1999/xlink">
<!-- Flame graph stack visualization. See https://github.com/brendangregg/FlameGraph for latest version, and http://www.brendangregg.com/flamegraphs.html for examples. -->
<!-- NOTES:  -->
<defs>
	<linearGradient id="background" y1="0" y2="1" x1="0" x2="0" >
		<stop stop-color="#eeeeee" offset="5%" />
		<stop stop-color="#eeeeb0" offset="95%" />
	</linearGradient>
</defs>
<style type="text/css">
	text { font-family:Verdana; font-size:12px; fill:rgb(0,0,0); }
	#search { opacity:0.1; cursor:pointer; }
	#search:hover, #search.show { opacity:1; }
	#subtitle { text-anchor:middle; font-color:rgb(160,160,160); }
	#title { text-anchor:middle; font-size:17px}
	#unzoom { cursor:pointer; }
	#frames > *:hover { stroke:black; stroke-width:0.5; cursor:pointer; }
	.hide { display:none; }
	.parent { opacity:0.5; }
</style>
<script type="text/ecmascript">
<![CDATA[
	"use strict";
	var details, searchbtn, unzoombtn, matchedtxt, svg, searching;
	function init(evt) {
		details = document.getElementById("details").firstChild;
		searchbtn = document.getElementById("search");
		unzoombtn = document.getElementById("unzoom");
		matchedtxt = document.getElementById("matched");
		svg = document.getElementsByTagName("svg")[0];
		searching = 0;
	}

	window.addEventListener("click", function(e) {
		var target = find_group(e.target);
		if (target) {
			if (target.nodeName == "a") {
				if (e.ctrlKey === false) return;
				e.preventDefault();
			}
			if (target.classList.contains("parent")) unzoom();
			zoom(target);
		}
		else if (e.target.id == "unzoom") unzoom();
		else if (e.target.id == "search") search_prompt();
	}, false)

	// mouse-over for info
	// show
	window.addEventListener("mouseover", function(e) {
		var target = find_group(e.target);
		if (target) details.nodeValue = "Function: " + g_to_text(target);
	}, false)

	// clear
	window.addEventListener("mouseout", function(e) {
		var target = find_group(e.target);
		if (target) details.nodeValue = ' ';
	}, false)

	// ctrl-F for search
	window.addEventListener("keydown",function (e) {
		if (e.keyCode === 114 || (e.ctrlKey && e.keyCode === 70)) {
			e.preventDefault();
			search_prompt();
		}
	}, false)

	// functions
	function find_child(node, selector) {
		var children = node.querySelectorAll(selector);
		if (children.length) return children[0];
		return;
	}
	function find_group(node) {
		var parent = node.parentElement;
		if (!parent) return;
		if (parent.id == "frames") return node;
		return find_group(parent);
	}
	function orig_save(e, attr, val) {
		if (e.attributes["_orig_" + attr] != undefined) return;
		if (e.attributes[attr] == undefined) return;
		if (val == undefined) val = e.attributes[attr].value;
		e.setAttribute("_orig_" + attr, val);
	}
	function orig_load(e, attr) {
		if (e.attributes["_orig_"+attr] == undefined) return;
		e.attributes[attr].value = e.attributes["_orig_" + attr].value;
		e.removeAttribute("_orig_"+attr);
	}
	function g_to_text(e) {
		var text = find_child(e, "title").firstChild.nodeValue;
		return (text)
	}
	function g_to_func(e) {
		var func = g_to_text(e);
		// if there's any manipulation we want to do to the function
		// name before it's searched, do it here before returning.
		return (func);
	}
	function update_text(e) {
		var r = find_child(e, "rect");
		var t = find_child(e, "text");
		var w = parseFloat(r.attributes.width.value) -3;
		var txt = find_child(e, "title").textContent.replace(/\([^(]*\)$/,"");
		t.attributes.x.value = parseFloat(r.attributes.x.value) + 3;

		// Smaller than this size won't fit anything
		if (w < 2 * 12 * 0.59) {
			t.textContent = "";
			return;
		}

		t.textContent = txt;
		// Fit in full text width
		if (/^ *$/.test(txt) || t.getSubStringLength(0, txt.length) < w)
			return;

		for (var x = txt.length - 2; x > 0; x--) {
			if (t.getSubStringLength(0, x + 2) <= w) {
				t.textContent = txt.substring(0, x) + "..";
				return;
			}
		}
		t.textContent = "";
	}

	// zoom
	function zoom_reset(e) {
		if (e.attributes != undefined) {
			orig_load(e, "x");
			orig_load(e, "width");
		}
		if (e.childNodes == undefined) return;
		for (var i = 0, c = e.childNodes; i < c.length; i++) {
			zoom_reset(c[i]);
		}
	}
	function zoom_child(e, x, ratio) {
		if (e.attributes != undefined) {
			if (e.attributes.x != undefined) {
				orig_save(e, "x");
				e.attributes.x.value = (parseFloat(e.attributes.x.value) - x - 10) * ratio + 10;
				if (e.tagName == "text")
					e.attributes.x.value = find_child(e.parentNode, "rect[x]").attributes.x.value + 3;
			}
			if (e.attributes.width != undefined) {
				orig_save(e, "width");
				e.attributes.width.value = parseFloat(e.attributes.width.value) * ratio;
			}
		}

		if (e.childNodes == undefined) return;
		for (var i = 0, c = e.childNodes; i < c.length; i++) {
			zoom_child(c[i], x - 10, ratio);
		}
	}
	function zoom_parent(e) {
		if (e.attributes) {
			if (e.attributes.x != undefined) {
				orig_save(e, "x");
				e.attributes.x.value = 10;
			}
			if (e.attributes.width != undefined) {
				orig_save(e, "width");
				e.attributes.width.value = parseInt(svg.width.baseVal.value) - (10 * 2);
			}
		}
		if (e.childNodes == undefined) return;
		for (var i = 0, c = e.childNodes; i < c.length; i++) {
			zoom_parent(c[i]);
		}
	}
	function zoom(node) {
		var attr = find_child(node, "rect").attributes;
		var width = parseFloat(attr.width.value);
		var xmin = parseFloat(attr.x.value);
		var xmax = parseFloat(xmin + width);
		var ymin = parseFloat(attr.y.value);
		var ratio = (svg.width.baseVal.value - 2 * 10) / width;

		// XXX: Workaround for JavaScript float issues (fix me)
		var fudge = 0.0001;

		unzoombtn.classList.remove("hide");

		var el = document.getElementById("frames").children;
		for (var i = 0; i < el.length; i++) {
			var e = el[i];
			var a = find_child(e, "rect").attributes;
			var ex = parseFloat(a.x.value);
			var ew = parseFloat(a.width.value);
			var upstack;
			// Is it an ancestor
			if (0 == 0) {
				upstack = parseFloat(a.y.value) > ymin;
			} else {
				upstack = parseFloat(a.y.value) < ymin;
			}
			if (upstack) {
				// Direct ancestor
				if (ex <= xmin && (ex+ew+fudge) >= xmax) {
					e.classList.add("parent");
					zoom_parent(e);
					update_text(e);
				}
				// not in current path
				else
					e.classList.add("hide");
			}
			// Children maybe
			else {
				// no common path
				if (ex < xmin || ex + fudge >= xmax) {
					e.classList.add("hide");
				}
				else {
					zoom_child(e, xmin, ratio);
					update_text(e);
				}
			}
		}
	}
	function unzoom() {
		unzoombtn.classList.add("hide");
		var el = document.getElementById("frames").children;
		for(var i = 0; i < el.length; i++) {
			el[i].classList.remove("parent");
			el[i].classList.remove("hide");
			zoom_reset(el[i]);
			update_text(el[i]);
		}
	}

	// search
	function reset_search() {
		var el = document.querySelectorAll("#frames rect");
		for (var i = 0; i < el.length; i++) {
			orig_load(el[i], "fill")
		}
	}
	function search_prompt() {
		if (!searching) {
			var term = prompt("Enter a search term (regexp " +
			    "allowed, eg: ^ext4_)", "");
			if (term != null) {
				search(term)
			}
		} else {
			reset_search();
			searching = 0;
			searchbtn.classList.remove("show");
			searchbtn.firstChild.nodeValue = "Search"
			matchedtxt.classList.add("hide");
			matchedtxt.firstChild.nodeValue = ""
		}
	}
	function search(term) {
		var re = new RegExp(term);
		var el = document.getElementById("frames").children;
		var matches = new Object();
		var maxwidth = 0;
		for (var i = 0; i < el.length; i++) {
			var e = el[i];
			var func = g_to_func(e);
			var rect = find_child(e, "rect");
			if (func == null || rect == null)
				continue;

			// Save max width. Only works as we have a root frame
			var w = parseFloat(rect.attributes.width.value);
			if (w > maxwidth)
				maxwidth = w;

			if (func.match(re)) {
				// highlight
				var x = parseFloat(rect.attributes.x.value);
				orig_save(rect, "fill");
				rect.attributes.fill.value = "rgb(230,0,230)";

				// remember matches
				if (matches[x] == undefined) {
					matches[x] = w;
				} else {
					if (w > matches[x]) {
						// overwrite with parent
						matches[x] = w;
					}
				}
				searching = 1;
			}
		}
		if (!searching)
			return;

		searchbtn.classList.add("show");
		searchbtn.firstChild.nodeValue = "Reset Search";

		// calculate percent matched, excluding vertical overlap
		var count = 0;
		var lastx = -1;
		var lastw = 0;
		var keys = Array();
		for (k in matches) {
			if (matches.hasOwnProperty(k))
				keys.push(k);
		}
		// sort the matched frames by their x location
		// ascending, then width descending
		keys.sort(function(a, b){
			return a - b;
		});
		// Step through frames saving only the biggest bottom-up frames
		// thanks to the sort order. This relies on the tree property
		// where children are always smaller than their parents.
		var fudge = 0.0001;	// JavaScript floating point
		for (var k in keys) {
			var x = parseFloat(keys[k]);
			var w = matches[keys[k]];
			if (x >= lastx + lastw - fudge) {
				count += w;
				lastx = x;
				lastw = w;
			}
		}
		// display matched percent
		matchedtxt.classList.remove("hide");
		var pct = 100 * count / maxwidth;
		if (pct != 100) pct = pct.toFixed(1)
		matchedtxt.firstChild.nodeValue = "Matched: " + pct + "%";
	}
]]>
</script>
<rect x="0.0" y="0" width="1200.0" height="294.0" fill="url(#background)"  />
<text id="title" x="600.00" y="24" >Flame Graph</text>
<text id="details" x="10.00" y="277" > </text>
<text id="unzoom" x="10.00" y="24" class="hide">Reset Zoom</text>
<text id="search" x="1090.00" y="24" >Search</text>
<text id="matched" x="1090.00" y="277" > </text>
<g id="frames">
<g >
<title>?(cocos2dx\NodeEx.lua:385) (35,521 samples, 33.12%)</title><rect x="10.0" y="213" width="390.8" height="15.0" fill="rgb(206,9,20)" rx="2" ry="2" />
<text  x="13.00" y="223.5" >?(cocos2dx\NodeEx.lua:385)</text>
</g>
<g >
<title>update(mir2\scenes\main\console\console.lua:372) (44 samples, 0.04%)</title><rect x="400.4" y="165" width="0.4" height="15.0" fill="rgb(231,202,5)" rx="2" ry="2" />
<text  x="403.35" y="175.5" ></text>
</g>
<g >
<title>p(cocos2d\Cocos2d.lua:27) (79 samples, 0.07%)</title><rect x="401.8" y="181" width="0.9" height="15.0" fill="rgb(230,196,47)" rx="2" ry="2" />
<text  x="404.82" y="191.5" ></text>
</g>
<g >
<title>addAniQueue(mir2\single\m2spr.lua:146) (48 samples, 0.04%)</title><rect x="412.8" y="149" width="0.6" height="15.0" fill="rgb(239,158,12)" rx="2" ry="2" />
<text  x="415.83" y="159.5" ></text>
</g>
<g >
<title>play(mir2\single\sound.lua:84) (13 samples, 0.01%)</title><rect x="414.6" y="181" width="0.2" height="15.0" fill="rgb(235,151,52)" rx="2" ry="2" />
<text  x="417.64" y="191.5" ></text>
</g>
<g >
<title>p(cocos2d\Cocos2d.lua:27) (35 samples, 0.03%)</title><rect x="413.4" y="213" width="0.4" height="15.0" fill="rgb(244,22,11)" rx="2" ry="2" />
<text  x="416.37" y="223.5" ></text>
</g>
<g >
<title>addAct(mir2\scenes\main\role\hero.lua:160) (304 samples, 0.28%)</title><rect x="423.8" y="181" width="3.4" height="15.0" fill="rgb(250,62,52)" rx="2" ry="2" />
<text  x="426.82" y="191.5" ></text>
</g>
<g >
<title>performWithDelay(cocos2dx\NodeEx.lua:65) (32 samples, 0.03%)</title><rect x="423.5" y="197" width="0.3" height="15.0" fill="rgb(210,107,47)" rx="2" ry="2" />
<text  x="426.47" y="207.5" ></text>
</g>
<g >
<title>addAct(mir2\scenes\main\role\role.lua:1225) (92 samples, 0.09%)</title><rect x="420.0" y="149" width="1.0" height="15.0" fill="rgb(239,29,10)" rx="2" ry="2" />
<text  x="422.96" y="159.5" ></text>
</g>
<g >
<title>get(mir2\scenes\main\common\magic.lua:39) (52 samples, 0.05%)</title><rect x="300.2" y="101" width="0.6" height="15.0" fill="rgb(250,123,20)" rx="2" ry="2" />
<text  x="303.18" y="111.5" ></text>
</g>
<g >
<title>addNodeEventListener(cocos2dx\NodeEx.lua:289) (24 samples, 0.02%)</title><rect x="409.8" y="117" width="0.2" height="15.0" fill="rgb(213,152,30)" rx="2" ry="2" />
<text  x="412.77" y="127.5" ></text>
</g>
<g >
<title>resGetTex(mir2\single\res.lua:454) (1,354 samples, 1.26%)</title><rect x="1174.8" y="213" width="14.9" height="15.0" fill="rgb(217,14,35)" rx="2" ry="2" />
<text  x="1177.79" y="223.5" ></text>
</g>
<g >
<title>playAnimation(mir2\single\m2spr.lua:511) (52 samples, 0.05%)</title><rect x="300.2" y="69" width="0.6" height="15.0" fill="rgb(221,193,0)" rx="2" ry="2" />
<text  x="303.18" y="79.5" ></text>
</g>
<g >
<title>setBaseNodeEventListener(cocos2dx\NodeEx.lua:273) (24 samples, 0.02%)</title><rect x="409.8" y="101" width="0.2" height="15.0" fill="rgb(228,201,38)" rx="2" ry="2" />
<text  x="412.77" y="111.5" ></text>
</g>
<g >
<title>playAct(mir2\scenes\main\common\helper\dummy.lua:916) (21 samples, 0.02%)</title><rect x="414.8" y="213" width="0.3" height="15.0" fill="rgb(254,190,51)" rx="2" ry="2" />
<text  x="417.83" y="223.5" ></text>
</g>
<g >
<title>showEvent(mir2\scenes\main\map\mirmap.lua:900) (770 samples, 0.72%)</title><rect x="404.9" y="197" width="8.5" height="15.0" fill="rgb(231,225,20)" rx="2" ry="2" />
<text  x="407.89" y="207.5" ></text>
</g>
<g >
<title>?(mir2\scenes\main\common\helper\util.lua:128) (24 samples, 0.02%)</title><rect x="414.8" y="229" width="0.3" height="15.0" fill="rgb(230,136,0)" rx="2" ry="2" />
<text  x="417.79" y="239.5" ></text>
</g>
<g >
<title>magic(mir2\scenes\main\common\helper\dummy.lua:670) (1,100 samples, 1.03%)</title><rect x="415.1" y="213" width="12.1" height="15.0" fill="rgb(224,43,19)" rx="2" ry="2" />
<text  x="418.05" y="223.5" ></text>
</g>
<g >
<title>sendMove(mir2\scenes\main\console\controller.lua:778) (30 samples, 0.03%)</title><rect x="400.4" y="101" width="0.3" height="15.0" fill="rgb(208,13,29)" rx="2" ry="2" />
<text  x="403.36" y="111.5" ></text>
</g>
<g >
<title>addAct(mir2\scenes\main\role\role.lua:1225) (19 samples, 0.02%)</title><rect x="422.0" y="133" width="0.2" height="15.0" fill="rgb(245,52,38)" rx="2" ry="2" />
<text  x="424.97" y="143.5" ></text>
</g>
<g >
<title>play(mir2\single\sound.lua:84) (38 samples, 0.04%)</title><rect x="28.7" y="85" width="0.4" height="15.0" fill="rgb(212,77,9)" rx="2" ry="2" />
<text  x="31.71" y="95.5" ></text>
</g>
<g >
<title>attack(mir2\scenes\main\common\helper\dummy.lua:807) (110 samples, 0.10%)</title><rect x="421.0" y="197" width="1.2" height="15.0" fill="rgb(213,90,9)" rx="2" ry="2" />
<text  x="423.97" y="207.5" ></text>
</g>
<g >
<title>addAct(mir2\scenes\main\role\hero.lua:160) (27 samples, 0.03%)</title><rect x="400.4" y="85" width="0.3" height="15.0" fill="rgb(228,147,22)" rx="2" ry="2" />
<text  x="403.39" y="95.5" ></text>
</g>
<g >
<title>sequence(transition.lua:488) (32 samples, 0.03%)</title><rect x="423.5" y="181" width="0.3" height="15.0" fill="rgb(251,109,50)" rx="2" ry="2" />
<text  x="426.47" y="191.5" ></text>
</g>
<g >
<title>executeAct(mir2\scenes\main\role\role.lua:1098) (1,080 samples, 1.01%)</title><rect x="16.4" y="117" width="11.9" height="15.0" fill="rgb(229,169,51)" rx="2" ry="2" />
<text  x="19.39" y="127.5" ></text>
</g>
<g >
<title>addAction(mir2\scenes\main\role\role.lua:947) (580 samples, 0.54%)</title><rect x="10.0" y="117" width="6.4" height="15.0" fill="rgb(238,60,6)" rx="2" ry="2" />
<text  x="13.00" y="127.5" ></text>
</g>
<g >
<title>play(mir2\scenes\main\role\ani.lua:107) (14 samples, 0.01%)</title><rect x="384.1" y="69" width="0.1" height="15.0" fill="rgb(253,228,21)" rx="2" ry="2" />
<text  x="387.06" y="79.5" ></text>
</g>
<g >
<title>addAct(mir2\scenes\main\role\role.lua:1225) (1,017 samples, 0.95%)</title><rect x="528.7" y="181" width="11.2" height="15.0" fill="rgb(251,86,45)" rx="2" ry="2" />
<text  x="531.71" y="191.5" ></text>
</g>
<g >
<title>anchor(an\overwrite\shortcodes.lua:15) (39 samples, 0.04%)</title><rect x="403.1" y="165" width="0.5" height="15.0" fill="rgb(219,36,11)" rx="2" ry="2" />
<text  x="406.12" y="175.5" ></text>
</g>
<g >
<title>processMsg(mir2\scenes\main\role\role.lua:1272) (110 samples, 0.10%)</title><rect x="421.0" y="165" width="1.2" height="15.0" fill="rgb(214,222,17)" rx="2" ry="2" />
<text  x="423.97" y="175.5" ></text>
</g>
<g >
<title>p(cocos2d\Cocos2d.lua:27) (29 samples, 0.03%)</title><rect x="414.3" y="197" width="0.3" height="15.0" fill="rgb(221,114,43)" rx="2" ry="2" />
<text  x="417.26" y="207.5" ></text>
</g>
<g >
<title>addAct(mir2\scenes\main\role\role.lua:1225) (304 samples, 0.28%)</title><rect x="423.8" y="165" width="3.4" height="15.0" fill="rgb(242,171,7)" rx="2" ry="2" />
<text  x="426.82" y="175.5" ></text>
</g>
<g >
<title>playAct(mir2\scenes\main\common\helper\dummy.lua:916) (10 samples, 0.01%)</title><rect x="502.6" y="213" width="0.1" height="15.0" fill="rgb(210,208,15)" rx="2" ry="2" />
<text  x="505.59" y="223.5" ></text>
</g>
<g >
<title>aniFactory(mir2\scenes\main\common\magic.lua:91) (9 samples, 0.01%)</title><rect x="414.0" y="181" width="0.1" height="15.0" fill="rgb(222,16,22)" rx="2" ry="2" />
<text  x="417.02" y="191.5" ></text>
</g>
<g >
<title>showDir(mir2\scenes\main\console\widget\rocker.lua:253) (78 samples, 0.07%)</title><rect x="403.1" y="181" width="0.9" height="15.0" fill="rgb(248,158,30)" rx="2" ry="2" />
<text  x="406.12" y="191.5" ></text>
</g>
<g >
<title>?(mir2\single\m2debug.lua:212) (45,316 samples, 42.26%)</title><rect x="540.1" y="229" width="498.6" height="15.0" fill="rgb(250,134,54)" rx="2" ry="2" />
<text  x="543.10" y="239.5" >?(mir2\single\m2debug.lua:212)</text>
</g>
<g >
<title>play(mir2\scenes\main\role\ani.lua:107) (24 samples, 0.02%)</title><rect x="400.4" y="37" width="0.3" height="15.0" fill="rgb(235,101,45)" rx="2" ry="2" />
<text  x="403.43" y="47.5" ></text>
</g>
<g >
<title>processMsg(mir2\scenes\main\role\role.lua:1272) (10 samples, 0.01%)</title><rect x="540.0" y="197" width="0.1" height="15.0" fill="rgb(244,76,13)" rx="2" ry="2" />
<text  x="542.96" y="207.5" ></text>
</g>
<g >
<title>moveTo(mir2\scenes\main\console\controller.lua:835) (30 samples, 0.03%)</title><rect x="400.4" y="117" width="0.3" height="15.0" fill="rgb(249,133,4)" rx="2" ry="2" />
<text  x="403.36" y="127.5" ></text>
</g>
<g >
<title>?(mir2\scenes\main\common\helper\dummy.lua:702) (903 samples, 0.84%)</title><rect x="404.8" y="229" width="10.0" height="15.0" fill="rgb(245,212,46)" rx="2" ry="2" />
<text  x="407.85" y="239.5" ></text>
</g>
<g >
<title>listener_(mir2\scenes\main\console\controller.lua:65) (354 samples, 0.33%)</title><rect x="401.0" y="213" width="3.8" height="15.0" fill="rgb(239,17,14)" rx="2" ry="2" />
<text  x="403.95" y="223.5" ></text>
</g>
<g >
<title>processMsg(mir2\scenes\main\role\role.lua:1272) (21 samples, 0.02%)</title><rect x="427.3" y="197" width="0.2" height="15.0" fill="rgb(217,77,21)" rx="2" ry="2" />
<text  x="430.28" y="207.5" ></text>
</g>
<g >
<title>aniFactory(mir2\scenes\main\common\magic.lua:124) (52 samples, 0.05%)</title><rect x="300.2" y="85" width="0.6" height="15.0" fill="rgb(241,27,54)" rx="2" ry="2" />
<text  x="303.18" y="95.5" ></text>
</g>
<g >
<title>executeAct(mir2\scenes\main\role\role.lua:620) (27 samples, 0.03%)</title><rect x="400.4" y="53" width="0.3" height="15.0" fill="rgb(232,46,1)" rx="2" ry="2" />
<text  x="403.39" y="63.5" ></text>
</g>
<g >
<title>handleTouch(mir2\scenes\main\console\widget\rocker.lua:274) (353 samples, 0.33%)</title><rect x="401.0" y="197" width="3.8" height="15.0" fill="rgb(249,116,36)" rx="2" ry="2" />
<text  x="403.95" y="207.5" ></text>
</g>
<g >
<title>?(cocos2dx\NodeEx.lua:385) (364 samples, 0.34%)</title><rect x="400.8" y="229" width="4.0" height="15.0" fill="rgb(245,153,48)" rx="2" ry="2" />
<text  x="403.84" y="239.5" ></text>
</g>
<g >
<title>targetMiss(mir2\scenes\main\console\controller.lua:1392) (13 samples, 0.01%)</title><rect x="400.7" y="133" width="0.1" height="15.0" fill="rgb(245,113,40)" rx="2" ry="2" />
<text  x="403.69" y="143.5" ></text>
</g>
<g >
<title>get(mir2\scenes\main\common\magic.lua:39) (17 samples, 0.02%)</title><rect x="413.9" y="197" width="0.2" height="15.0" fill="rgb(230,14,53)" rx="2" ry="2" />
<text  x="416.94" y="207.5" ></text>
</g>
<g >
<title>addAct(mir2\scenes\main\role\hero.lua:160) (1,017 samples, 0.95%)</title><rect x="528.7" y="197" width="11.2" height="15.0" fill="rgb(244,198,10)" rx="2" ry="2" />
<text  x="531.71" y="207.5" ></text>
</g>
<g >
<title>play(mir2\single\sound.lua:80) (18 samples, 0.02%)</title><rect x="414.6" y="197" width="0.2" height="15.0" fill="rgb(227,220,12)" rx="2" ry="2" />
<text  x="417.58" y="207.5" ></text>
</g>
<g >
<title>executeAct(mir2\scenes\main\role\role.lua:620) (26,425 samples, 24.64%)</title><rect x="10.0" y="133" width="290.8" height="15.0" fill="rgb(228,20,12)" rx="2" ry="2" />
<text  x="13.00" y="143.5" >executeAct(mir2\scenes\main\role\role.l..</text>
</g>
<g >
<title>texChanged(mir2\single\m2spr.lua:413) (96 samples, 0.09%)</title><rect x="1173.7" y="181" width="1.1" height="15.0" fill="rgb(234,17,46)" rx="2" ry="2" />
<text  x="1176.73" y="191.5" ></text>
</g>
<g >
<title>addTexQueue(mir2\single\m2spr.lua:138) (96 samples, 0.09%)</title><rect x="1173.7" y="165" width="1.1" height="15.0" fill="rgb(240,212,4)" rx="2" ry="2" />
<text  x="1176.73" y="175.5" ></text>
</g>
<g >
<title>?(mir2\scenes\main\role\hero.lua:185) (10 samples, 0.01%)</title><rect x="502.6" y="229" width="0.1" height="15.0" fill="rgb(208,220,23)" rx="2" ry="2" />
<text  x="505.59" y="239.5" ></text>
</g>
<g >
<title>geth(an\overwrite\shortcodes.lua:82) (39 samples, 0.04%)</title><rect x="404.0" y="165" width="0.4" height="15.0" fill="rgb(208,167,41)" rx="2" ry="2" />
<text  x="406.98" y="175.5" ></text>
</g>
<g >
<title>processMsg(mir2\scenes\main\role\role.lua:1272) (538 samples, 0.50%)</title><rect x="415.1" y="181" width="5.9" height="15.0" fill="rgb(228,78,32)" rx="2" ry="2" />
<text  x="418.05" y="191.5" ></text>
</g>
<g >
<title>aniUpt(mir2\single\m2spr.lua:549) (12,343 samples, 11.51%)</title><rect x="1039.0" y="213" width="135.8" height="15.0" fill="rgb(240,137,9)" rx="2" ry="2" />
<text  x="1041.97" y="223.5" >aniUpt(mir2\singl..</text>
</g>
<g >
<title>handler(functions.lua:535) (13 samples, 0.01%)</title><rect x="414.1" y="197" width="0.2" height="15.0" fill="rgb(243,191,19)" rx="2" ry="2" />
<text  x="417.12" y="207.5" ></text>
</g>
<g >
<title>getw(an\overwrite\shortcodes.lua:78) (39 samples, 0.04%)</title><rect x="404.4" y="165" width="0.4" height="15.0" fill="rgb(218,218,5)" rx="2" ry="2" />
<text  x="407.41" y="175.5" ></text>
</g>
<g >
<title>addStandAct(mir2\scenes\main\role\role.lua:1263) (3,373 samples, 3.15%)</title><rect x="502.8" y="213" width="37.1" height="15.0" fill="rgb(253,20,46)" rx="2" ry="2" />
<text  x="505.79" y="223.5" >add..</text>
</g>
<g >
<title>ctor(mir2\single\m2spr.lua:337) (119 samples, 0.11%)</title><rect x="408.7" y="149" width="1.3" height="15.0" fill="rgb(253,45,46)" rx="2" ry="2" />
<text  x="411.72" y="159.5" ></text>
</g>
<g >
<title>moveTest(mir2\scenes\main\console\controller.lua:1140) (30 samples, 0.03%)</title><rect x="400.4" y="133" width="0.3" height="15.0" fill="rgb(246,73,24)" rx="2" ry="2" />
<text  x="403.36" y="143.5" ></text>
</g>
<g >
<title>addAniQueue(mir2\single\m2spr.lua:146) (48 samples, 0.04%)</title><rect x="300.2" y="37" width="0.6" height="15.0" fill="rgb(225,28,9)" rx="2" ry="2" />
<text  x="303.22" y="47.5" ></text>
</g>
<g >
<title>listener_(mir2\scenes\main\scene.lua:86) (35,521 samples, 33.12%)</title><rect x="10.0" y="197" width="390.8" height="15.0" fill="rgb(243,201,23)" rx="2" ry="2" />
<text  x="13.00" y="207.5" >listener_(mir2\scenes\main\scene.lua:86)</text>
</g>
<g >
<title>getw(an\overwrite\shortcodes.lua:78) (39 samples, 0.04%)</title><rect x="401.4" y="181" width="0.4" height="15.0" fill="rgb(223,209,21)" rx="2" ry="2" />
<text  x="404.39" y="191.5" ></text>
</g>
<g >
<title>playAni(mir2\single\m2spr.lua:492) (49 samples, 0.05%)</title><rect x="300.2" y="53" width="0.6" height="15.0" fill="rgb(227,105,7)" rx="2" ry="2" />
<text  x="303.21" y="63.5" ></text>
</g>
<g >
<title>p(cocos2d\Cocos2d.lua:27) (1,080 samples, 1.01%)</title><rect x="16.4" y="101" width="11.9" height="15.0" fill="rgb(246,161,54)" rx="2" ry="2" />
<text  x="19.39" y="111.5" ></text>
</g>
<g >
<title>listener_(an\overwrite\shortcodes.lua:156) (9 samples, 0.01%)</title><rect x="400.8" y="213" width="0.1" height="15.0" fill="rgb(223,131,38)" rx="2" ry="2" />
<text  x="403.84" y="223.5" ></text>
</g>
<g >
<title>update(mir2\scenes\main\console\controller.lua:1482) (44 samples, 0.04%)</title><rect x="400.4" y="149" width="0.4" height="15.0" fill="rgb(216,207,53)" rx="2" ry="2" />
<text  x="403.35" y="159.5" ></text>
</g>
<g >
<title>addAct(mir2\scenes\main\role\hero.lua:160) (1,166 samples, 1.09%)</title><rect x="489.6" y="181" width="12.9" height="15.0" fill="rgb(216,152,27)" rx="2" ry="2" />
<text  x="492.63" y="191.5" ></text>
</g>
<g >
<title>play(mir2\scenes\main\role\ani.lua:107) (23,256 samples, 21.69%)</title><rect x="44.3" y="117" width="255.9" height="15.0" fill="rgb(205,33,39)" rx="2" ry="2" />
<text  x="47.29" y="127.5" >play(mir2\scenes\main\role\ani.lua..</text>
</g>
<g >
<title>playAnimation(mir2\single\m2spr.lua:511) (770 samples, 0.72%)</title><rect x="404.9" y="181" width="8.5" height="15.0" fill="rgb(218,155,26)" rx="2" ry="2" />
<text  x="407.89" y="191.5" ></text>
</g>
<g >
<title>playAnimation(mir2\single\m2spr.lua:511) (9 samples, 0.01%)</title><rect x="414.0" y="165" width="0.1" height="15.0" fill="rgb(241,58,38)" rx="2" ry="2" />
<text  x="417.02" y="175.5" ></text>
</g>
<g >
<title>merge(functions.lua:913) (45,316 samples, 42.26%)</title><rect x="540.1" y="213" width="498.6" height="15.0" fill="rgb(207,212,14)" rx="2" ry="2" />
<text  x="543.10" y="223.5" >merge(functions.lua:913)</text>
</g>
<g >
<title>update(mir2\scenes\main\ui.lua:80) (44 samples, 0.04%)</title><rect x="400.4" y="181" width="0.4" height="15.0" fill="rgb(215,213,49)" rx="2" ry="2" />
<text  x="403.35" y="191.5" ></text>
</g>
<g >
<title>showStepImg(mir2\scenes\main\console\widget\rocker.lua:182) (78 samples, 0.07%)</title><rect x="404.0" y="181" width="0.8" height="15.0" fill="rgb(227,87,30)" rx="2" ry="2" />
<text  x="406.98" y="191.5" ></text>
</g>
<g >
<title>processMsg(mir2\scenes\main\role\role.lua:1272) (21 samples, 0.02%)</title><rect x="414.8" y="197" width="0.3" height="15.0" fill="rgb(223,36,51)" rx="2" ry="2" />
<text  x="417.83" y="207.5" ></text>
</g>
<g >
<title>executeAct(mir2\scenes\main\role\role.lua:1098) (8,997 samples, 8.39%)</title><rect x="301.4" y="101" width="99.0" height="15.0" fill="rgb(251,12,8)" rx="2" ry="2" />
<text  x="304.36" y="111.5" >executeAct(..</text>
</g>
<g >
<title>all (107,243 samples, 100%)</title><rect x="10.0" y="245" width="1180.0" height="15.0" fill="rgb(242,120,31)" rx="2" ry="2" />
<text  x="13.00" y="255.5" ></text>
</g>
<g >
<title>addStandAct(mir2\scenes\main\role\role.lua:1263) (13 samples, 0.01%)</title><rect x="1189.8" y="213" width="0.1" height="15.0" fill="rgb(209,216,41)" rx="2" ry="2" />
<text  x="1192.78" y="223.5" ></text>
</g>
<g >
<title>__create(functions.lua:336) (306 samples, 0.29%)</title><rect x="406.7" y="165" width="3.3" height="15.0" fill="rgb(228,30,47)" rx="2" ry="2" />
<text  x="409.67" y="175.5" ></text>
</g>
<g >
<title>pSub(cocos2d\Cocos2d.lua:36) (39 samples, 0.04%)</title><rect x="402.7" y="165" width="0.4" height="15.0" fill="rgb(216,27,22)" rx="2" ry="2" />
<text  x="405.69" y="175.5" ></text>
</g>
<g >
<title>?(mir2\scenes\main\common\helper\util.lua:130) (1,100 samples, 1.03%)</title><rect x="415.1" y="229" width="12.1" height="15.0" fill="rgb(217,69,14)" rx="2" ry="2" />
<text  x="418.05" y="239.5" ></text>
</g>
<g >
<title>__newindex(mir2\scenes\main\common\helper\dummy.lua:254) (538 samples, 0.50%)</title><rect x="415.1" y="197" width="5.9" height="15.0" fill="rgb(208,4,21)" rx="2" ry="2" />
<text  x="418.05" y="207.5" ></text>
</g>
<g >
<title>executeActions(mir2\scenes\main\role\role.lua:971) (8,997 samples, 8.39%)</title><rect x="301.4" y="117" width="99.0" height="15.0" fill="rgb(219,225,20)" rx="2" ry="2" />
<text  x="304.36" y="127.5" >executeActi..</text>
</g>
<g >
<title>playAct(mir2\scenes\main\common\helper\dummy.lua:916) (10 samples, 0.01%)</title><rect x="540.0" y="213" width="0.1" height="15.0" fill="rgb(223,12,9)" rx="2" ry="2" />
<text  x="542.96" y="223.5" ></text>
</g>
<g >
<title>?(mir2\single\m2spr.lua:29) (13,721 samples, 12.79%)</title><rect x="1038.7" y="229" width="151.0" height="15.0" fill="rgb(252,196,48)" rx="2" ry="2" />
<text  x="1041.71" y="239.5" >?(mir2\single\m2spr..</text>
</g>
<g >
<title>p(cocos2d\Cocos2d.lua:27) (13 samples, 0.01%)</title><rect x="400.7" y="117" width="0.1" height="15.0" fill="rgb(210,66,43)" rx="2" ry="2" />
<text  x="403.69" y="127.5" ></text>
</g>
<g >
<title>addAct(mir2\scenes\main\role\hero.lua:160) (92 samples, 0.09%)</title><rect x="420.0" y="165" width="1.0" height="15.0" fill="rgb(217,27,53)" rx="2" ry="2" />
<text  x="422.96" y="175.5" ></text>
</g>
<g >
<title>loadMapTest(mir2\scenes\main\role\role.lua:1224) (22 samples, 0.02%)</title><rect x="1189.7" y="229" width="0.2" height="15.0" fill="rgb(240,202,51)" rx="2" ry="2" />
<text  x="1192.69" y="239.5" ></text>
</g>
<g >
<title>playAct(mir2\scenes\main\common\helper\dummy.lua:916) (21 samples, 0.02%)</title><rect x="427.3" y="213" width="0.2" height="15.0" fill="rgb(228,78,20)" rx="2" ry="2" />
<text  x="430.28" y="223.5" ></text>
</g>
<g >
<title>update(mir2\scenes\main\map\mirmap.lua:1356) (35,477 samples, 33.08%)</title><rect x="10.0" y="165" width="390.4" height="15.0" fill="rgb(212,40,10)" rx="2" ry="2" />
<text  x="13.00" y="175.5" >update(mir2\scenes\main\map\mirmap.lua:1356)</text>
</g>
<g >
<title>p(cocos2d\Cocos2d.lua:27) (1,467 samples, 1.37%)</title><rect x="384.2" y="85" width="16.2" height="15.0" fill="rgb(233,141,41)" rx="2" ry="2" />
<text  x="387.21" y="95.5" ></text>
</g>
<g >
<title>executeActions(mir2\scenes\main\role\role.lua:971) (9,052 samples, 8.44%)</title><rect x="300.8" y="133" width="99.6" height="15.0" fill="rgb(233,70,6)" rx="2" ry="2" />
<text  x="303.75" y="143.5" >executeActio..</text>
</g>
<g >
<title>?(mir2\scenes\main\common\helper\util.lua:155) (6,813 samples, 6.35%)</title><rect x="427.5" y="229" width="75.0" height="15.0" fill="rgb(223,152,39)" rx="2" ry="2" />
<text  x="430.51" y="239.5" >?(mir2\s..</text>
</g>
<g >
<title>processMsg(mir2\scenes\main\role\role.lua:1272) (304 samples, 0.28%)</title><rect x="423.8" y="197" width="3.4" height="15.0" fill="rgb(212,173,38)" rx="2" ry="2" />
<text  x="426.82" y="207.5" ></text>
</g>
<g >
<title>playAct(mir2\scenes\main\common\helper\dummy.lua:916) (110 samples, 0.10%)</title><rect x="421.0" y="181" width="1.2" height="15.0" fill="rgb(232,119,19)" rx="2" ry="2" />
<text  x="423.97" y="191.5" ></text>
</g>
<g >
<title>?(mir2\scenes\main\common\helper\util.lua:153) (31 samples, 0.03%)</title><rect x="427.2" y="229" width="0.3" height="15.0" fill="rgb(232,81,3)" rx="2" ry="2" />
<text  x="430.16" y="239.5" ></text>
</g>
<g >
<title>addAct(mir2\scenes\main\role\hero.lua:160) (19 samples, 0.02%)</title><rect x="422.0" y="149" width="0.2" height="15.0" fill="rgb(223,48,24)" rx="2" ry="2" />
<text  x="424.97" y="159.5" ></text>
</g>
<g >
<title>showMagic(mir2\scenes\main\common\magic.lua:317) (93 samples, 0.09%)</title><rect x="413.8" y="213" width="1.0" height="15.0" fill="rgb(215,73,2)" rx="2" ry="2" />
<text  x="416.77" y="223.5" ></text>
</g>
<g >
<title>update(mir2\scenes\main\ground.lua:600) (35,477 samples, 33.08%)</title><rect x="10.0" y="181" width="390.4" height="15.0" fill="rgb(214,226,13)" rx="2" ry="2" />
<text  x="13.00" y="191.5" >update(mir2\scenes\main\ground.lua:600)</text>
</g>
<g >
<title>?(mir2\scenes\main\common\magic.lua:453) (9 samples, 0.01%)</title><rect x="502.5" y="229" width="0.1" height="15.0" fill="rgb(222,7,54)" rx="2" ry="2" />
<text  x="505.49" y="239.5" ></text>
</g>
<g >
<title>play(mir2\single\sound.lua:80) (45 samples, 0.04%)</title><rect x="28.6" y="101" width="0.5" height="15.0" fill="rgb(252,55,32)" rx="2" ry="2" />
<text  x="31.63" y="111.5" ></text>
</g>
<g >
<title>addAct(mir2\scenes\main\role\role.lua:1225) (1,166 samples, 1.09%)</title><rect x="489.6" y="165" width="12.9" height="15.0" fill="rgb(249,99,43)" rx="2" ry="2" />
<text  x="492.63" y="175.5" ></text>
</g>
<g >
<title>executeSound(mir2\scenes\main\role\role.lua:1079) (78 samples, 0.07%)</title><rect x="28.3" y="117" width="0.8" height="15.0" fill="rgb(215,101,47)" rx="2" ry="2" />
<text  x="31.27" y="127.5" ></text>
</g>
<g >
<title>pGetDistance(cocos2d\Cocos2d.lua:88) (39 samples, 0.04%)</title><rect x="402.7" y="181" width="0.4" height="15.0" fill="rgb(248,196,10)" rx="2" ry="2" />
<text  x="405.69" y="191.5" ></text>
</g>
<g >
<title>processMsg(mir2\scenes\main\role\role.lua:1272) (6,806 samples, 6.35%)</title><rect x="427.6" y="197" width="74.9" height="15.0" fill="rgb(235,47,5)" rx="2" ry="2" />
<text  x="430.58" y="207.5" >processM..</text>
</g>
<g >
<title>roleUpdate(mir2\scenes\main\role\role.lua:1411) (35,477 samples, 33.08%)</title><rect x="10.0" y="149" width="390.4" height="15.0" fill="rgb(229,139,14)" rx="2" ry="2" />
<text  x="13.00" y="159.5" >roleUpdate(mir2\scenes\main\role\role.lua:1411)</text>
</g>
<g >
<title>playAct(mir2\scenes\main\common\helper\dummy.lua:916) (6,806 samples, 6.35%)</title><rect x="427.6" y="213" width="74.9" height="15.0" fill="rgb(231,75,24)" rx="2" ry="2" />
<text  x="430.58" y="223.5" >playAct(..</text>
</g>
<g >
<title>_showEvents(mir2\scenes\main\common\helper\dummy.lua:620) (771 samples, 0.72%)</title><rect x="404.9" y="213" width="8.5" height="15.0" fill="rgb(246,19,2)" rx="2" ry="2" />
<text  x="407.87" y="223.5" ></text>
</g>
<g >
<title>setImg(mir2\single\m2spr.lua:453) (139 samples, 0.13%)</title><rect x="1173.3" y="197" width="1.5" height="15.0" fill="rgb(207,113,28)" rx="2" ry="2" />
<text  x="1176.26" y="207.5" ></text>
</g>
<g >
<title>geth(an\overwrite\shortcodes.lua:82) (39 samples, 0.04%)</title><rect x="401.0" y="181" width="0.4" height="15.0" fill="rgb(222,169,26)" rx="2" ry="2" />
<text  x="403.95" y="191.5" ></text>
</g>
<g >
<title>p(cocos2d\Cocos2d.lua:27) (39 samples, 0.04%)</title><rect x="403.6" y="165" width="0.4" height="15.0" fill="rgb(253,13,35)" rx="2" ry="2" />
<text  x="406.55" y="175.5" ></text>
</g>
<g >
<title>setNodeEventEnabled(cocos2dx\NodeEx.lua:159) (109 samples, 0.10%)</title><rect x="408.8" y="133" width="1.2" height="15.0" fill="rgb(238,64,43)" rx="2" ry="2" />
<text  x="411.84" y="143.5" ></text>
</g>
<g >
<title>showSpellEffect(mir2\scenes\main\common\magic.lua:542) (52 samples, 0.05%)</title><rect x="300.2" y="117" width="0.6" height="15.0" fill="rgb(241,151,28)" rx="2" ry="2" />
<text  x="303.18" y="127.5" ></text>
</g>
<g >
<title>handler(functions.lua:535) (1,378 samples, 1.28%)</title><rect x="29.1" y="117" width="15.2" height="15.0" fill="rgb(238,103,0)" rx="2" ry="2" />
<text  x="32.13" y="127.5" ></text>
</g>
<g >
<title>processMsg(mir2\scenes\main\role\role.lua:1272) (10 samples, 0.01%)</title><rect x="502.6" y="197" width="0.1" height="15.0" fill="rgb(250,167,4)" rx="2" ry="2" />
<text  x="505.59" y="207.5" ></text>
</g>
<g >
<title>addAct(mir2\scenes\main\role\role.lua:1225) (27 samples, 0.03%)</title><rect x="400.4" y="69" width="0.3" height="15.0" fill="rgb(233,174,25)" rx="2" ry="2" />
<text  x="403.39" y="79.5" ></text>
</g>
<g >
<title>p(cocos2d\Cocos2d.lua:27) (39 samples, 0.04%)</title><rect x="403.1" y="149" width="0.5" height="15.0" fill="rgb(253,176,1)" rx="2" ry="2" />
<text  x="406.12" y="159.5" ></text>
</g>
<g >
<title>playAni(mir2\single\m2spr.lua:492) (302 samples, 0.28%)</title><rect x="410.0" y="165" width="3.4" height="15.0" fill="rgb(219,178,2)" rx="2" ry="2" />
<text  x="413.04" y="175.5" ></text>
</g>
<g >
<title>?(mir2\scenes\main\role\hero.lua:197) (3,398 samples, 3.17%)</title><rect x="502.7" y="229" width="37.4" height="15.0" fill="rgb(206,67,14)" rx="2" ry="2" />
<text  x="505.71" y="239.5" >?(m..</text>
</g>
<g >
<title>allExecuteEnd(mir2\scenes\main\role\hero.lua:195) (14 samples, 0.01%)</title><rect x="384.1" y="85" width="0.1" height="15.0" fill="rgb(217,67,32)" rx="2" ry="2" />
<text  x="387.06" y="95.5" ></text>
</g>
<g >
<title>?(cocos2dx\NodeEx.lua:264) (35,521 samples, 33.12%)</title><rect x="10.0" y="229" width="390.8" height="15.0" fill="rgb(254,169,9)" rx="2" ry="2" />
<text  x="13.00" y="239.5" >?(cocos2dx\NodeEx.lua:264)</text>
</g>
<g >
<title>p(cocos2d\Cocos2d.lua:27) (117 samples, 0.11%)</title><rect x="422.2" y="197" width="1.3" height="15.0" fill="rgb(225,70,33)" rx="2" ry="2" />
<text  x="425.18" y="207.5" ></text>
</g>
</g>
</svg>
