<?xml version="1.0" standalone="no"?>
<!DOCTYPE svg PUBLIC "-//W3C//DTD SVG 1.1//EN" "http://www.w3.org/Graphics/SVG/1.1/DTD/svg11.dtd">
<svg version="1.1" width="1200" height="294" onload="init(evt)" viewBox="0 0 1200 294" xmlns="http://www.w3.org/2000/svg" xmlns:xlink="http://www.w3.org/1999/xlink">
<!-- Flame graph stack visualization. See https://github.com/brendangregg/FlameGraph for latest version, and http://www.brendangregg.com/flamegraphs.html for examples. -->
<!-- NOTES:  -->
<defs>
	<linearGradient id="background" y1="0" y2="1" x1="0" x2="0" >
		<stop stop-color="#eeeeee" offset="5%" />
		<stop stop-color="#eeeeb0" offset="95%" />
	</linearGradient>
</defs>
<style type="text/css">
	text { font-family:Verdana; font-size:12px; fill:rgb(0,0,0); }
	#search { opacity:0.1; cursor:pointer; }
	#search:hover, #search.show { opacity:1; }
	#subtitle { text-anchor:middle; font-color:rgb(160,160,160); }
	#title { text-anchor:middle; font-size:17px}
	#unzoom { cursor:pointer; }
	#frames > *:hover { stroke:black; stroke-width:0.5; cursor:pointer; }
	.hide { display:none; }
	.parent { opacity:0.5; }
</style>
<script type="text/ecmascript">
<![CDATA[
	"use strict";
	var details, searchbtn, unzoombtn, matchedtxt, svg, searching;
	function init(evt) {
		details = document.getElementById("details").firstChild;
		searchbtn = document.getElementById("search");
		unzoombtn = document.getElementById("unzoom");
		matchedtxt = document.getElementById("matched");
		svg = document.getElementsByTagName("svg")[0];
		searching = 0;
	}

	window.addEventListener("click", function(e) {
		var target = find_group(e.target);
		if (target) {
			if (target.nodeName == "a") {
				if (e.ctrlKey === false) return;
				e.preventDefault();
			}
			if (target.classList.contains("parent")) unzoom();
			zoom(target);
		}
		else if (e.target.id == "unzoom") unzoom();
		else if (e.target.id == "search") search_prompt();
	}, false)

	// mouse-over for info
	// show
	window.addEventListener("mouseover", function(e) {
		var target = find_group(e.target);
		if (target) details.nodeValue = "Function: " + g_to_text(target);
	}, false)

	// clear
	window.addEventListener("mouseout", function(e) {
		var target = find_group(e.target);
		if (target) details.nodeValue = ' ';
	}, false)

	// ctrl-F for search
	window.addEventListener("keydown",function (e) {
		if (e.keyCode === 114 || (e.ctrlKey && e.keyCode === 70)) {
			e.preventDefault();
			search_prompt();
		}
	}, false)

	// functions
	function find_child(node, selector) {
		var children = node.querySelectorAll(selector);
		if (children.length) return children[0];
		return;
	}
	function find_group(node) {
		var parent = node.parentElement;
		if (!parent) return;
		if (parent.id == "frames") return node;
		return find_group(parent);
	}
	function orig_save(e, attr, val) {
		if (e.attributes["_orig_" + attr] != undefined) return;
		if (e.attributes[attr] == undefined) return;
		if (val == undefined) val = e.attributes[attr].value;
		e.setAttribute("_orig_" + attr, val);
	}
	function orig_load(e, attr) {
		if (e.attributes["_orig_"+attr] == undefined) return;
		e.attributes[attr].value = e.attributes["_orig_" + attr].value;
		e.removeAttribute("_orig_"+attr);
	}
	function g_to_text(e) {
		var text = find_child(e, "title").firstChild.nodeValue;
		return (text)
	}
	function g_to_func(e) {
		var func = g_to_text(e);
		// if there's any manipulation we want to do to the function
		// name before it's searched, do it here before returning.
		return (func);
	}
	function update_text(e) {
		var r = find_child(e, "rect");
		var t = find_child(e, "text");
		var w = parseFloat(r.attributes.width.value) -3;
		var txt = find_child(e, "title").textContent.replace(/\([^(]*\)$/,"");
		t.attributes.x.value = parseFloat(r.attributes.x.value) + 3;

		// Smaller than this size won't fit anything
		if (w < 2 * 12 * 0.59) {
			t.textContent = "";
			return;
		}

		t.textContent = txt;
		// Fit in full text width
		if (/^ *$/.test(txt) || t.getSubStringLength(0, txt.length) < w)
			return;

		for (var x = txt.length - 2; x > 0; x--) {
			if (t.getSubStringLength(0, x + 2) <= w) {
				t.textContent = txt.substring(0, x) + "..";
				return;
			}
		}
		t.textContent = "";
	}

	// zoom
	function zoom_reset(e) {
		if (e.attributes != undefined) {
			orig_load(e, "x");
			orig_load(e, "width");
		}
		if (e.childNodes == undefined) return;
		for (var i = 0, c = e.childNodes; i < c.length; i++) {
			zoom_reset(c[i]);
		}
	}
	function zoom_child(e, x, ratio) {
		if (e.attributes != undefined) {
			if (e.attributes.x != undefined) {
				orig_save(e, "x");
				e.attributes.x.value = (parseFloat(e.attributes.x.value) - x - 10) * ratio + 10;
				if (e.tagName == "text")
					e.attributes.x.value = find_child(e.parentNode, "rect[x]").attributes.x.value + 3;
			}
			if (e.attributes.width != undefined) {
				orig_save(e, "width");
				e.attributes.width.value = parseFloat(e.attributes.width.value) * ratio;
			}
		}

		if (e.childNodes == undefined) return;
		for (var i = 0, c = e.childNodes; i < c.length; i++) {
			zoom_child(c[i], x - 10, ratio);
		}
	}
	function zoom_parent(e) {
		if (e.attributes) {
			if (e.attributes.x != undefined) {
				orig_save(e, "x");
				e.attributes.x.value = 10;
			}
			if (e.attributes.width != undefined) {
				orig_save(e, "width");
				e.attributes.width.value = parseInt(svg.width.baseVal.value) - (10 * 2);
			}
		}
		if (e.childNodes == undefined) return;
		for (var i = 0, c = e.childNodes; i < c.length; i++) {
			zoom_parent(c[i]);
		}
	}
	function zoom(node) {
		var attr = find_child(node, "rect").attributes;
		var width = parseFloat(attr.width.value);
		var xmin = parseFloat(attr.x.value);
		var xmax = parseFloat(xmin + width);
		var ymin = parseFloat(attr.y.value);
		var ratio = (svg.width.baseVal.value - 2 * 10) / width;

		// XXX: Workaround for JavaScript float issues (fix me)
		var fudge = 0.0001;

		unzoombtn.classList.remove("hide");

		var el = document.getElementById("frames").children;
		for (var i = 0; i < el.length; i++) {
			var e = el[i];
			var a = find_child(e, "rect").attributes;
			var ex = parseFloat(a.x.value);
			var ew = parseFloat(a.width.value);
			var upstack;
			// Is it an ancestor
			if (0 == 0) {
				upstack = parseFloat(a.y.value) > ymin;
			} else {
				upstack = parseFloat(a.y.value) < ymin;
			}
			if (upstack) {
				// Direct ancestor
				if (ex <= xmin && (ex+ew+fudge) >= xmax) {
					e.classList.add("parent");
					zoom_parent(e);
					update_text(e);
				}
				// not in current path
				else
					e.classList.add("hide");
			}
			// Children maybe
			else {
				// no common path
				if (ex < xmin || ex + fudge >= xmax) {
					e.classList.add("hide");
				}
				else {
					zoom_child(e, xmin, ratio);
					update_text(e);
				}
			}
		}
	}
	function unzoom() {
		unzoombtn.classList.add("hide");
		var el = document.getElementById("frames").children;
		for(var i = 0; i < el.length; i++) {
			el[i].classList.remove("parent");
			el[i].classList.remove("hide");
			zoom_reset(el[i]);
			update_text(el[i]);
		}
	}

	// search
	function reset_search() {
		var el = document.querySelectorAll("#frames rect");
		for (var i = 0; i < el.length; i++) {
			orig_load(el[i], "fill")
		}
	}
	function search_prompt() {
		if (!searching) {
			var term = prompt("Enter a search term (regexp " +
			    "allowed, eg: ^ext4_)", "");
			if (term != null) {
				search(term)
			}
		} else {
			reset_search();
			searching = 0;
			searchbtn.classList.remove("show");
			searchbtn.firstChild.nodeValue = "Search"
			matchedtxt.classList.add("hide");
			matchedtxt.firstChild.nodeValue = ""
		}
	}
	function search(term) {
		var re = new RegExp(term);
		var el = document.getElementById("frames").children;
		var matches = new Object();
		var maxwidth = 0;
		for (var i = 0; i < el.length; i++) {
			var e = el[i];
			var func = g_to_func(e);
			var rect = find_child(e, "rect");
			if (func == null || rect == null)
				continue;

			// Save max width. Only works as we have a root frame
			var w = parseFloat(rect.attributes.width.value);
			if (w > maxwidth)
				maxwidth = w;

			if (func.match(re)) {
				// highlight
				var x = parseFloat(rect.attributes.x.value);
				orig_save(rect, "fill");
				rect.attributes.fill.value = "rgb(230,0,230)";

				// remember matches
				if (matches[x] == undefined) {
					matches[x] = w;
				} else {
					if (w > matches[x]) {
						// overwrite with parent
						matches[x] = w;
					}
				}
				searching = 1;
			}
		}
		if (!searching)
			return;

		searchbtn.classList.add("show");
		searchbtn.firstChild.nodeValue = "Reset Search";

		// calculate percent matched, excluding vertical overlap
		var count = 0;
		var lastx = -1;
		var lastw = 0;
		var keys = Array();
		for (k in matches) {
			if (matches.hasOwnProperty(k))
				keys.push(k);
		}
		// sort the matched frames by their x location
		// ascending, then width descending
		keys.sort(function(a, b){
			return a - b;
		});
		// Step through frames saving only the biggest bottom-up frames
		// thanks to the sort order. This relies on the tree property
		// where children are always smaller than their parents.
		var fudge = 0.0001;	// JavaScript floating point
		for (var k in keys) {
			var x = parseFloat(keys[k]);
			var w = matches[keys[k]];
			if (x >= lastx + lastw - fudge) {
				count += w;
				lastx = x;
				lastw = w;
			}
		}
		// display matched percent
		matchedtxt.classList.remove("hide");
		var pct = 100 * count / maxwidth;
		if (pct != 100) pct = pct.toFixed(1)
		matchedtxt.firstChild.nodeValue = "Matched: " + pct + "%";
	}
]]>
</script>
<rect x="0.0" y="0" width="1200.0" height="294.0" fill="url(#background)"  />
<text id="title" x="600.00" y="24" >Flame Graph</text>
<text id="details" x="10.00" y="277" > </text>
<text id="unzoom" x="10.00" y="24" class="hide">Reset Zoom</text>
<text id="search" x="1090.00" y="24" >Search</text>
<text id="matched" x="1090.00" y="277" > </text>
<g id="frames">
<g >
<title>nums(functions.lua:817) (9,193 samples, 0.54%)</title><rect x="716.8" y="213" width="6.3" height="15.0" fill="rgb(243,54,12)" rx="2" ry="2" />
<text  x="719.75" y="223.5" ></text>
</g>
<g >
<title>addChild[C] (1,875 samples, 0.11%)</title><rect x="321.2" y="85" width="1.3" height="15.0" fill="rgb(248,50,24)" rx="2" ry="2" />
<text  x="324.19" y="95.5" ></text>
</g>
<g >
<title>processMsg(mir2\scenes\main\role\role.lua:1272) (250 samples, 0.01%)</title><rect x="659.8" y="165" width="0.2" height="15.0" fill="rgb(211,40,29)" rx="2" ry="2" />
<text  x="662.83" y="175.5" ></text>
</g>
<g >
<title>xy2key(mir2\scenes\main\map\mirmap.lua:683) (162 samples, 0.01%)</title><rect x="465.0" y="69" width="0.1" height="15.0" fill="rgb(208,166,18)" rx="2" ry="2" />
<text  x="467.97" y="79.5" ></text>
</g>
<g >
<title>playAni(mir2\single\m2spr.lua:492) (278 samples, 0.02%)</title><rect x="652.3" y="165" width="0.2" height="15.0" fill="rgb(213,25,49)" rx="2" ry="2" />
<text  x="655.33" y="175.5" ></text>
</g>
<g >
<title>inSet(mir2\scenes\main\common\helper\util.lua:42) (153 samples, 0.01%)</title><rect x="668.4" y="197" width="0.1" height="15.0" fill="rgb(250,117,8)" rx="2" ry="2" />
<text  x="671.42" y="207.5" ></text>
</g>
<g >
<title>?(mir2\single\res.lua:184) (3,133 samples, 0.18%)</title><rect x="1187.2" y="229" width="2.1" height="15.0" fill="rgb(249,62,53)" rx="2" ry="2" />
<text  x="1190.15" y="239.5" ></text>
</g>
<g >
<title>checkSoldierSoleEffect(mir2\scenes\main\role\role.lua:1639) (232 samples, 0.01%)</title><rect x="252.1" y="117" width="0.2" height="15.0" fill="rgb(234,191,39)" rx="2" ry="2" />
<text  x="255.14" y="127.5" ></text>
</g>
<g >
<title>?(mir2\single\m2spr.lua:29) (666,980 samples, 39.32%)</title><rect x="723.1" y="229" width="464.1" height="15.0" fill="rgb(211,225,12)" rx="2" ry="2" />
<text  x="726.15" y="239.5" >?(mir2\single\m2spr.lua:29)</text>
</g>
<g >
<title>?(mir2\scenes\main\common\helper\dummy.lua:702) (10,251 samples, 0.60%)</title><rect x="650.4" y="229" width="7.1" height="15.0" fill="rgb(239,70,46)" rx="2" ry="2" />
<text  x="653.39" y="239.5" ></text>
</g>
<g >
<title>getMagicConfigByUid(mir2\def\magic.lua:38) (11,862 samples, 0.70%)</title><rect x="660.1" y="197" width="8.2" height="15.0" fill="rgb(207,141,46)" rx="2" ry="2" />
<text  x="663.06" y="207.5" ></text>
</g>
<g >
<title>addAct(mir2\scenes\main\role\hero.lua:160) (250 samples, 0.01%)</title><rect x="645.8" y="85" width="0.2" height="15.0" fill="rgb(205,149,29)" rx="2" ry="2" />
<text  x="648.84" y="95.5" ></text>
</g>
<g >
<title>?(cocos2dx\NodeEx.lua:274) (723 samples, 0.04%)</title><rect x="651.1" y="149" width="0.5" height="15.0" fill="rgb(245,20,14)" rx="2" ry="2" />
<text  x="654.10" y="159.5" ></text>
</g>
<g >
<title>merge(functions.lua:913) (9,258 samples, 0.55%)</title><rect x="710.3" y="213" width="6.5" height="15.0" fill="rgb(205,99,41)" rx="2" ry="2" />
<text  x="713.31" y="223.5" ></text>
</g>
<g >
<title>showEvent(mir2\scenes\main\map\mirmap.lua:900) (2,396 samples, 0.14%)</title><rect x="650.9" y="197" width="1.6" height="15.0" fill="rgb(242,92,38)" rx="2" ry="2" />
<text  x="653.88" y="207.5" ></text>
</g>
<g >
<title>processMsg(mir2\scenes\main\role\role.lua:1272) (1,182 samples, 0.07%)</title><rect x="658.9" y="181" width="0.8" height="15.0" fill="rgb(218,19,32)" rx="2" ry="2" />
<text  x="661.85" y="191.5" ></text>
</g>
<g >
<title>?(cocos2dx\NodeEx.lua:274) (276 samples, 0.02%)</title><rect x="690.5" y="181" width="0.2" height="15.0" fill="rgb(214,200,26)" rx="2" ry="2" />
<text  x="693.54" y="191.5" ></text>
</g>
<g >
<title>resetAndPlay(mir2\single\m2spr.lua:462) (192 samples, 0.01%)</title><rect x="322.8" y="85" width="0.1" height="15.0" fill="rgb(234,60,19)" rx="2" ry="2" />
<text  x="325.77" y="95.5" ></text>
</g>
<g >
<title>addAct(mir2\scenes\main\role\role.lua:1225) (244 samples, 0.01%)</title><rect x="645.8" y="69" width="0.2" height="15.0" fill="rgb(235,29,40)" rx="2" ry="2" />
<text  x="648.84" y="79.5" ></text>
</g>
<g >
<title>callback(mir2\scenes\main\common\magic.lua:31) (5,427 samples, 0.32%)</title><rect x="982.5" y="197" width="3.7" height="15.0" fill="rgb(240,135,47)" rx="2" ry="2" />
<text  x="985.45" y="207.5" ></text>
</g>
<g >
<title>removeFromParent[C] (1,708 samples, 0.10%)</title><rect x="649.2" y="181" width="1.2" height="15.0" fill="rgb(252,217,54)" rx="2" ry="2" />
<text  x="652.20" y="191.5" ></text>
</g>
<g >
<title>play(mir2\scenes\main\role\ani.lua:107) (68,839 samples, 4.06%)</title><rect x="272.5" y="117" width="47.9" height="15.0" fill="rgb(208,75,1)" rx="2" ry="2" />
<text  x="275.51" y="127.5" >play..</text>
</g>
<g >
<title>runs(an\overwrite\shortcodes.lua:61) (3,051 samples, 0.18%)</title><rect x="454.6" y="69" width="2.1" height="15.0" fill="rgb(205,229,5)" rx="2" ry="2" />
<text  x="457.57" y="79.5" ></text>
</g>
<g >
<title>showDir(mir2\scenes\main\console\widget\rocker.lua:253) (479 samples, 0.03%)</title><rect x="648.4" y="181" width="0.3" height="15.0" fill="rgb(225,211,26)" rx="2" ry="2" />
<text  x="651.40" y="191.5" ></text>
</g>
<g >
<title>?(cocos2dx\NodeEx.lua:385) (430 samples, 0.03%)</title><rect x="690.8" y="165" width="0.3" height="15.0" fill="rgb(248,166,29)" rx="2" ry="2" />
<text  x="693.82" y="175.5" ></text>
</g>
<g >
<title>uptRoleXY(mir2\scenes\main\map\mirmap.lua:689) (1,529 samples, 0.09%)</title><rect x="260.0" y="101" width="1.1" height="15.0" fill="rgb(249,102,49)" rx="2" ry="2" />
<text  x="263.05" y="111.5" ></text>
</g>
<g >
<title>isObjblock(mir2\scenes\main\map\mirmap.lua:508) (1,249 samples, 0.07%)</title><rect x="646.0" y="69" width="0.9" height="15.0" fill="rgb(240,21,25)" rx="2" ry="2" />
<text  x="649.02" y="79.5" ></text>
</g>
<g >
<title>showStepImg(mir2\scenes\main\console\widget\rocker.lua:182) (425 samples, 0.03%)</title><rect x="648.7" y="181" width="0.3" height="15.0" fill="rgb(208,228,4)" rx="2" ry="2" />
<text  x="651.73" y="191.5" ></text>
</g>
<g >
<title>playSound(audio.lua:294) (284 samples, 0.02%)</title><rect x="262.4" y="69" width="0.2" height="15.0" fill="rgb(207,140,17)" rx="2" ry="2" />
<text  x="265.45" y="79.5" ></text>
</g>
<g >
<title>?(cocos2dx\NodeEx.lua:385) (241 samples, 0.01%)</title><rect x="690.6" y="165" width="0.1" height="15.0" fill="rgb(232,222,33)" rx="2" ry="2" />
<text  x="693.57" y="175.5" ></text>
</g>
<g >
<title>?(mir2\scenes\main\common\helper\util.lua:155) (28,015 samples, 1.65%)</title><rect x="670.8" y="229" width="19.5" height="15.0" fill="rgb(225,47,36)" rx="2" ry="2" />
<text  x="673.79" y="239.5" ></text>
</g>
<g >
<title>addto(an\overwrite\shortcodes.lua:5) (294 samples, 0.02%)</title><rect x="690.5" y="213" width="0.2" height="15.0" fill="rgb(209,143,20)" rx="2" ry="2" />
<text  x="693.53" y="223.5" ></text>
</g>
<g >
<title>addto(an\overwrite\shortcodes.lua:5) (776 samples, 0.05%)</title><rect x="651.1" y="181" width="0.5" height="15.0" fill="rgb(254,219,1)" rx="2" ry="2" />
<text  x="654.07" y="191.5" ></text>
</g>
<g >
<title>getMapPos(mir2\scenes\main\map\mirmap.lua:328) (6,914 samples, 0.41%)</title><rect x="262.7" y="117" width="4.8" height="15.0" fill="rgb(214,145,36)" rx="2" ry="2" />
<text  x="265.65" y="127.5" ></text>
</g>
<g >
<title>isXSvrBoss(mir2\scenes\main\role\role.lua:236) (15,879 samples, 0.94%)</title><rect x="634.1" y="117" width="11.0" height="15.0" fill="rgb(214,165,13)" rx="2" ry="2" />
<text  x="637.06" y="127.5" ></text>
</g>
<g >
<title>play(mir2\single\sound.lua:80) (170 samples, 0.01%)</title><rect x="691.2" y="213" width="0.1" height="15.0" fill="rgb(210,13,34)" rx="2" ry="2" />
<text  x="694.18" y="223.5" ></text>
</g>
<g >
<title>addChild[C] (276 samples, 0.02%)</title><rect x="690.5" y="197" width="0.2" height="15.0" fill="rgb(223,158,4)" rx="2" ry="2" />
<text  x="693.54" y="207.5" ></text>
</g>
<g >
<title>addAct(mir2\scenes\main\role\hero.lua:160) (942 samples, 0.06%)</title><rect x="659.0" y="165" width="0.7" height="15.0" fill="rgb(224,210,53)" rx="2" ry="2" />
<text  x="662.02" y="175.5" ></text>
</g>
<g >
<title>get(mir2\scenes\main\common\magic.lua:39) (395 samples, 0.02%)</title><rect x="322.6" y="101" width="0.3" height="15.0" fill="rgb(213,52,29)" rx="2" ry="2" />
<text  x="325.63" y="111.5" ></text>
</g>
<g >
<title>showMagic(mir2\scenes\main\common\magic.lua:317) (350 samples, 0.02%)</title><rect x="699.9" y="213" width="0.3" height="15.0" fill="rgb(221,125,52)" rx="2" ry="2" />
<text  x="702.94" y="223.5" ></text>
</g>
<g >
<title>magic(mir2\scenes\main\common\helper\dummy.lua:670) (18,571 samples, 1.09%)</title><rect x="657.7" y="213" width="13.0" height="15.0" fill="rgb(209,136,33)" rx="2" ry="2" />
<text  x="660.75" y="223.5" ></text>
</g>
<g >
<title>listener_(mir2\scenes\main\scene.lua:86) (914,450 samples, 53.91%)</title><rect x="11.0" y="197" width="636.1" height="15.0" fill="rgb(244,106,54)" rx="2" ry="2" />
<text  x="13.98" y="207.5" >listener_(mir2\scenes\main\scene.lua:86)</text>
</g>
<g >
<title>getGamePos(mir2\scenes\main\map\mirmap.lua:339) (75,068 samples, 4.43%)</title><rect x="466.8" y="133" width="52.2" height="15.0" fill="rgb(206,147,2)" rx="2" ry="2" />
<text  x="469.79" y="143.5" >getGa..</text>
</g>
<g >
<title>checkInScreen(mir2\scenes\main\map\mirmap.lua:236) (196 samples, 0.01%)</title><rect x="322.5" y="101" width="0.1" height="15.0" fill="rgb(254,116,35)" rx="2" ry="2" />
<text  x="325.49" y="111.5" ></text>
</g>
<g >
<title>?(cocos2dx\NodeEx.lua:385) (4,345 samples, 0.26%)</title><rect x="983.2" y="149" width="3.0" height="15.0" fill="rgb(239,182,10)" rx="2" ry="2" />
<text  x="986.20" y="159.5" ></text>
</g>
<g >
<title>__newindex(mir2\scenes\main\common\helper\dummy.lua:254) (1,621 samples, 0.10%)</title><rect x="658.5" y="197" width="1.2" height="15.0" fill="rgb(225,208,42)" rx="2" ry="2" />
<text  x="661.55" y="207.5" ></text>
</g>
<g >
<title>checkExist(an\funcs.lua:10) (12,678 samples, 0.75%)</title><rect x="243.3" y="117" width="8.8" height="15.0" fill="rgb(236,70,45)" rx="2" ry="2" />
<text  x="246.32" y="127.5" ></text>
</g>
<g >
<title>playAni(mir2\single\m2spr.lua:492) (28,033 samples, 1.65%)</title><rect x="300.9" y="101" width="19.5" height="15.0" fill="rgb(239,101,11)" rx="2" ry="2" />
<text  x="303.90" y="111.5" ></text>
</g>
<g >
<title>?(views\label.lua:112) (855 samples, 0.05%)</title><rect x="1189.3" y="229" width="0.6" height="15.0" fill="rgb(207,103,47)" rx="2" ry="2" />
<text  x="1192.33" y="239.5" ></text>
</g>
<g >
<title>executeActions(mir2\scenes\main\role\role.lua:971) (202,707 samples, 11.95%)</title><rect x="325.8" y="133" width="141.0" height="15.0" fill="rgb(249,211,31)" rx="2" ry="2" />
<text  x="328.77" y="143.5" >executeActions(mi..</text>
</g>
<g >
<title>?(cocos2dx\NodeEx.lua:274) (4,832 samples, 0.28%)</title><rect x="982.9" y="165" width="3.3" height="15.0" fill="rgb(254,190,18)" rx="2" ry="2" />
<text  x="985.87" y="175.5" ></text>
</g>
<g >
<title>canWalk(mir2\scenes\main\map\mirmap.lua:434) (1,264 samples, 0.07%)</title><rect x="646.0" y="85" width="0.9" height="15.0" fill="rgb(221,221,43)" rx="2" ry="2" />
<text  x="649.01" y="95.5" ></text>
</g>
<g >
<title>executeAct(mir2\scenes\main\role\role.lua:620) (183,389 samples, 10.81%)</title><rect x="198.2" y="133" width="127.6" height="15.0" fill="rgb(211,157,36)" rx="2" ry="2" />
<text  x="201.19" y="143.5" >executeAct(mir2\..</text>
</g>
<g >
<title>reportMagicShieldException(mir2\scenes\main\role\role.lua:495) (303 samples, 0.02%)</title><rect x="320.4" y="117" width="0.2" height="15.0" fill="rgb(252,62,48)" rx="2" ry="2" />
<text  x="323.40" y="127.5" ></text>
</g>
<g >
<title>remove[builtin:remove] (186 samples, 0.01%)</title><rect x="465.1" y="101" width="0.1" height="15.0" fill="rgb(233,208,46)" rx="2" ry="2" />
<text  x="468.09" y="111.5" ></text>
</g>
<g >
<title>addAniQueue(mir2\single\m2spr.lua:146) (647 samples, 0.04%)</title><rect x="319.0" y="85" width="0.5" height="15.0" fill="rgb(215,37,42)" rx="2" ry="2" />
<text  x="322.03" y="95.5" ></text>
</g>
<g >
<title>addAct(mir2\scenes\main\role\role.lua:1225) (598 samples, 0.04%)</title><rect x="659.3" y="149" width="0.4" height="15.0" fill="rgb(236,23,43)" rx="2" ry="2" />
<text  x="662.26" y="159.5" ></text>
</g>
<g >
<title>addAct(mir2\scenes\main\role\hero.lua:160) (988 samples, 0.06%)</title><rect x="669.8" y="181" width="0.7" height="15.0" fill="rgb(239,133,24)" rx="2" ry="2" />
<text  x="672.82" y="191.5" ></text>
</g>
<g >
<title>getPosition(mir2\scenes\main\role\role.lua:1407) (527 samples, 0.03%)</title><rect x="267.5" y="117" width="0.3" height="15.0" fill="rgb(247,211,30)" rx="2" ry="2" />
<text  x="270.46" y="127.5" ></text>
</g>
<g >
<title>addChild[C] (731 samples, 0.04%)</title><rect x="651.1" y="165" width="0.5" height="15.0" fill="rgb(216,76,40)" rx="2" ry="2" />
<text  x="654.10" y="175.5" ></text>
</g>
<g >
<title>uptRoleXY(mir2\scenes\main\map\mirmap.lua:689) (3,671 samples, 0.22%)</title><rect x="323.2" y="117" width="2.6" height="15.0" fill="rgb(239,165,16)" rx="2" ry="2" />
<text  x="326.21" y="127.5" ></text>
</g>
<g >
<title>play(mir2\single\sound.lua:80) (1,343 samples, 0.08%)</title><rect x="261.7" y="101" width="1.0" height="15.0" fill="rgb(231,15,0)" rx="2" ry="2" />
<text  x="264.72" y="111.5" ></text>
</g>
<g >
<title>checkExist(an\funcs.lua:10) (385 samples, 0.02%)</title><rect x="262.1" y="69" width="0.3" height="15.0" fill="rgb(234,158,36)" rx="2" ry="2" />
<text  x="265.12" y="79.5" ></text>
</g>
<g >
<title>getMapPos(mir2\scenes\main\map\mirmap.lua:328) (219 samples, 0.01%)</title><rect x="656.3" y="197" width="0.1" height="15.0" fill="rgb(245,175,27)" rx="2" ry="2" />
<text  x="659.27" y="207.5" ></text>
</g>
<g >
<title>update(mir2\scenes\main\console\console.lua:372) (2,782 samples, 0.16%)</title><rect x="645.2" y="165" width="1.9" height="15.0" fill="rgb(253,31,20)" rx="2" ry="2" />
<text  x="648.21" y="175.5" ></text>
</g>
<g >
<title>?(cocos2dx\NodeEx.lua:385) (1,235 samples, 0.07%)</title><rect x="653.3" y="149" width="0.9" height="15.0" fill="rgb(237,98,45)" rx="2" ry="2" />
<text  x="656.35" y="159.5" ></text>
</g>
<g >
<title>unfixTilePos(mir2\scenes\main\map\mirmap.lua:323) (2,717 samples, 0.16%)</title><rect x="517.1" y="117" width="1.9" height="15.0" fill="rgb(241,159,30)" rx="2" ry="2" />
<text  x="520.12" y="127.5" ></text>
</g>
<g >
<title>executeAct(mir2\scenes\main\role\role.lua:620) (209 samples, 0.01%)</title><rect x="645.9" y="53" width="0.1" height="15.0" fill="rgb(215,206,1)" rx="2" ry="2" />
<text  x="648.86" y="63.5" ></text>
</g>
<g >
<title>processMsg(mir2\scenes\main\role\role.lua:1272) (2,532 samples, 0.15%)</title><rect x="668.9" y="197" width="1.8" height="15.0" fill="rgb(209,121,21)" rx="2" ry="2" />
<text  x="671.91" y="207.5" ></text>
</g>
<g >
<title>moveTo(mir2\scenes\main\console\controller.lua:835) (1,660 samples, 0.10%)</title><rect x="645.8" y="117" width="1.1" height="15.0" fill="rgb(213,78,23)" rx="2" ry="2" />
<text  x="648.76" y="127.5" ></text>
</g>
<g >
<title>setNodeEventEnabled(cocos2dx\NodeEx.lua:159) (392 samples, 0.02%)</title><rect x="652.0" y="133" width="0.3" height="15.0" fill="rgb(232,225,19)" rx="2" ry="2" />
<text  x="655.05" y="143.5" ></text>
</g>
<g >
<title>getPosition(mir2\scenes\main\role\role.lua:1407) (9,156 samples, 0.54%)</title><rect x="519.0" y="133" width="6.4" height="15.0" fill="rgb(225,95,0)" rx="2" ry="2" />
<text  x="522.01" y="143.5" ></text>
</g>
<g >
<title>moveTest(mir2\scenes\main\console\controller.lua:1140) (1,698 samples, 0.10%)</title><rect x="645.7" y="133" width="1.2" height="15.0" fill="rgb(234,26,21)" rx="2" ry="2" />
<text  x="648.73" y="143.5" ></text>
</g>
<g >
<title>handler(mir2\single\sound.lua:340) (729 samples, 0.04%)</title><rect x="261.9" y="85" width="0.5" height="15.0" fill="rgb(237,181,30)" rx="2" ry="2" />
<text  x="264.88" y="95.5" ></text>
</g>
<g >
<title>p(cocos2d\Cocos2d.lua:27) (214 samples, 0.01%)</title><rect x="456.7" y="85" width="0.1" height="15.0" fill="rgb(231,13,42)" rx="2" ry="2" />
<text  x="459.69" y="95.5" ></text>
</g>
<g >
<title>executeActions(mir2\scenes\main\role\role.lua:971) (36,068 samples, 2.13%)</title><rect x="440.1" y="117" width="25.1" height="15.0" fill="rgb(239,166,49)" rx="2" ry="2" />
<text  x="443.13" y="127.5" >e..</text>
</g>
<g >
<title>removeTexQueue(mir2\single\m2spr.lua:142) (692 samples, 0.04%)</title><rect x="319.5" y="85" width="0.5" height="15.0" fill="rgb(245,179,15)" rx="2" ry="2" />
<text  x="322.48" y="95.5" ></text>
</g>
<g >
<title>showMagic(mir2\scenes\main\common\magic.lua:317) (7,128 samples, 0.42%)</title><rect x="652.6" y="213" width="4.9" height="15.0" fill="rgb(239,182,49)" rx="2" ry="2" />
<text  x="655.57" y="223.5" ></text>
</g>
<g >
<title>addStandAct(mir2\scenes\main\role\role.lua:1263) (11,044 samples, 0.65%)</title><rect x="692.2" y="213" width="7.7" height="15.0" fill="rgb(235,92,12)" rx="2" ry="2" />
<text  x="695.21" y="223.5" ></text>
</g>
<g >
<title>?(cocos2dx\NodeEx.lua:274) (347 samples, 0.02%)</title><rect x="982.2" y="165" width="0.3" height="15.0" fill="rgb(250,116,52)" rx="2" ry="2" />
<text  x="985.21" y="175.5" ></text>
</g>
<g >
<title>get(mir2\scenes\main\common\magic.lua:39) (314 samples, 0.02%)</title><rect x="654.9" y="197" width="0.3" height="15.0" fill="rgb(215,213,23)" rx="2" ry="2" />
<text  x="657.95" y="207.5" ></text>
</g>
<g >
<title>nums(functions.lua:817) (13,259 samples, 0.78%)</title><rect x="1042.4" y="213" width="9.2" height="15.0" fill="rgb(244,47,31)" rx="2" ry="2" />
<text  x="1045.36" y="223.5" ></text>
</g>
<g >
<title>?(cocos2dx\NodeEx.lua:274) (1,674 samples, 0.10%)</title><rect x="649.2" y="165" width="1.2" height="15.0" fill="rgb(243,101,50)" rx="2" ry="2" />
<text  x="652.20" y="175.5" ></text>
</g>
<g >
<title>getEffctIdByLvl(mir2\def\magic.lua:19) (11,469 samples, 0.68%)</title><rect x="660.3" y="181" width="8.0" height="15.0" fill="rgb(208,225,14)" rx="2" ry="2" />
<text  x="663.33" y="191.5" ></text>
</g>
<g >
<title>listener_(cocos2dx\NodeEx.lua:147) (786 samples, 0.05%)</title><rect x="985.6" y="133" width="0.6" height="15.0" fill="rgb(249,134,23)" rx="2" ry="2" />
<text  x="988.62" y="143.5" ></text>
</g>
<g >
<title>?(cocos2dx\NodeEx.lua:274) (494 samples, 0.03%)</title><rect x="690.8" y="181" width="0.3" height="15.0" fill="rgb(215,37,28)" rx="2" ry="2" />
<text  x="693.78" y="191.5" ></text>
</g>
<g >
<title>hideEvent(mir2\scenes\main\map\mirmap.lua:1077) (1,818 samples, 0.11%)</title><rect x="649.1" y="213" width="1.3" height="15.0" fill="rgb(249,45,30)" rx="2" ry="2" />
<text  x="652.13" y="223.5" ></text>
</g>
<g >
<title>?(mir2\single\m2debug.lua:212) (33,010 samples, 1.95%)</title><rect x="700.2" y="229" width="22.9" height="15.0" fill="rgb(210,81,53)" rx="2" ry="2" />
<text  x="703.18" y="239.5" >?..</text>
</g>
<g >
<title>getMagicConfig(mir2\def\magic.lua:27) (1,585 samples, 0.09%)</title><rect x="655.2" y="197" width="1.1" height="15.0" fill="rgb(210,174,1)" rx="2" ry="2" />
<text  x="658.16" y="207.5" ></text>
</g>
<g >
<title>upt(mir2\single\m2spr.lua:444) (191,636 samples, 11.30%)</title><rect x="1053.8" y="213" width="133.4" height="15.0" fill="rgb(254,19,8)" rx="2" ry="2" />
<text  x="1056.84" y="223.5" >upt(mir2\single\..</text>
</g>
<g >
<title>?(cocos2dx\NodeEx.lua:385) (1,566 samples, 0.09%)</title><rect x="649.3" y="149" width="1.1" height="15.0" fill="rgb(240,32,49)" rx="2" ry="2" />
<text  x="652.28" y="159.5" ></text>
</g>
<g >
<title>?(mir2\scenes\main\common\helper\util.lua:153) (181 samples, 0.01%)</title><rect x="670.7" y="229" width="0.1" height="15.0" fill="rgb(227,65,53)" rx="2" ry="2" />
<text  x="673.67" y="239.5" ></text>
</g>
<g >
<title>setIsUnderOtherRole(mir2\scenes\main\role\role.lua:176) (525 samples, 0.03%)</title><rect x="464.4" y="69" width="0.3" height="15.0" fill="rgb(228,137,5)" rx="2" ry="2" />
<text  x="467.35" y="79.5" ></text>
</g>
<g >
<title>removeFromParent[C] (4,832 samples, 0.28%)</title><rect x="982.9" y="181" width="3.3" height="15.0" fill="rgb(223,161,42)" rx="2" ry="2" />
<text  x="985.87" y="191.5" ></text>
</g>
<g >
<title>sequence(transition.lua:488) (263 samples, 0.02%)</title><rect x="668.7" y="181" width="0.2" height="15.0" fill="rgb(246,177,26)" rx="2" ry="2" />
<text  x="671.72" y="191.5" ></text>
</g>
<g >
<title>getActNum(mir2\scenes\main\role\role.lua:1020) (3,602 samples, 0.21%)</title><rect x="270.0" y="101" width="2.5" height="15.0" fill="rgb(250,106,38)" rx="2" ry="2" />
<text  x="273.01" y="111.5" ></text>
</g>
<g >
<title>texChanged(mir2\single\m2spr.lua:413) (13,334 samples, 0.79%)</title><rect x="996.4" y="181" width="9.3" height="15.0" fill="rgb(229,88,51)" rx="2" ry="2" />
<text  x="999.40" y="191.5" ></text>
</g>
<g >
<title>addto(an\overwrite\shortcodes.lua:5) (1,974 samples, 0.12%)</title><rect x="321.1" y="101" width="1.4" height="15.0" fill="rgb(205,45,18)" rx="2" ry="2" />
<text  x="324.12" y="111.5" ></text>
</g>
<g >
<title>executeAct(mir2\scenes\main\role\role.lua:1098) (12,665 samples, 0.75%)</title><rect x="252.3" y="117" width="8.8" height="15.0" fill="rgb(229,113,11)" rx="2" ry="2" />
<text  x="255.30" y="127.5" ></text>
</g>
<g >
<title>?(cocos2dx\NodeEx.lua:385) (653 samples, 0.04%)</title><rect x="651.2" y="133" width="0.4" height="15.0" fill="rgb(224,227,0)" rx="2" ry="2" />
<text  x="654.15" y="143.5" ></text>
</g>
<g >
<title>attack(mir2\scenes\main\common\helper\dummy.lua:807) (493 samples, 0.03%)</title><rect x="659.7" y="197" width="0.3" height="15.0" fill="rgb(206,3,51)" rx="2" ry="2" />
<text  x="662.67" y="207.5" ></text>
</g>
<g >
<title>aniCallback(mir2\scenes\main\common\magic.lua:31) (555 samples, 0.03%)</title><rect x="690.7" y="213" width="0.4" height="15.0" fill="rgb(209,36,17)" rx="2" ry="2" />
<text  x="693.74" y="223.5" ></text>
</g>
<g >
<title>addAct(mir2\scenes\main\role\role.lua:1225) (6,794 samples, 0.40%)</title><rect x="685.0" y="165" width="4.8" height="15.0" fill="rgb(231,173,10)" rx="2" ry="2" />
<text  x="688.03" y="175.5" ></text>
</g>
<g >
<title>playAnimation(mir2\single\m2spr.lua:511) (1,008 samples, 0.06%)</title><rect x="651.8" y="181" width="0.7" height="15.0" fill="rgb(254,45,22)" rx="2" ry="2" />
<text  x="654.82" y="191.5" ></text>
</g>
<g >
<title>update(mir2\scenes\main\ground.lua:600) (911,405 samples, 53.73%)</title><rect x="11.1" y="181" width="634.1" height="15.0" fill="rgb(240,157,30)" rx="2" ry="2" />
<text  x="14.12" y="191.5" >update(mir2\scenes\main\ground.lua:600)</text>
</g>
<g >
<title>ctor(mir2\single\m2spr.lua:337) (576 samples, 0.03%)</title><rect x="651.9" y="149" width="0.4" height="15.0" fill="rgb(211,122,20)" rx="2" ry="2" />
<text  x="654.93" y="159.5" ></text>
</g>
<g >
<title>?(cocos2dx\NodeEx.lua:274) (1,875 samples, 0.11%)</title><rect x="321.2" y="69" width="1.3" height="15.0" fill="rgb(254,98,30)" rx="2" ry="2" />
<text  x="324.19" y="79.5" ></text>
</g>
<g >
<title>?(mir2\scenes\main\common\helper\dummy.lua:624) (1,857 samples, 0.11%)</title><rect x="649.1" y="229" width="1.3" height="15.0" fill="rgb(226,101,9)" rx="2" ry="2" />
<text  x="652.10" y="239.5" ></text>
</g>
<g >
<title>uptPos(mir2\scenes\main\role\info.lua:186) (147,064 samples, 8.67%)</title><rect x="542.8" y="133" width="102.3" height="15.0" fill="rgb(247,115,9)" rx="2" ry="2" />
<text  x="545.80" y="143.5" >uptPos(mir2\..</text>
</g>
<g >
<title>update(mir2\scenes\main\map\mirmap.lua:1356) (911,273 samples, 53.73%)</title><rect x="11.2" y="165" width="634.0" height="15.0" fill="rgb(252,51,40)" rx="2" ry="2" />
<text  x="14.20" y="175.5" >update(mir2\scenes\main\map\mirmap.lua:1356)</text>
</g>
<g >
<title>uptIsIgnore(mir2\scenes\main\role\role.lua:169) (368 samples, 0.02%)</title><rect x="464.7" y="69" width="0.3" height="15.0" fill="rgb(238,190,25)" rx="2" ry="2" />
<text  x="467.72" y="79.5" ></text>
</g>
<g >
<title>checkExist(an\funcs.lua:10) (259 samples, 0.02%)</title><rect x="654.2" y="197" width="0.2" height="15.0" fill="rgb(205,172,24)" rx="2" ry="2" />
<text  x="657.21" y="207.5" ></text>
</g>
<g >
<title>set(mir2\def\globa2.lua:1489) (759 samples, 0.04%)</title><rect x="689.8" y="197" width="0.5" height="15.0" fill="rgb(249,13,25)" rx="2" ry="2" />
<text  x="692.75" y="207.5" ></text>
</g>
<g >
<title>handleTouch(mir2\scenes\main\console\widget\rocker.lua:274) (1,704 samples, 0.10%)</title><rect x="647.8" y="197" width="1.2" height="15.0" fill="rgb(219,82,17)" rx="2" ry="2" />
<text  x="650.84" y="207.5" ></text>
</g>
<g >
<title>?(mir2\scenes\main\common\magic.lua:22) (390 samples, 0.02%)</title><rect x="982.2" y="197" width="0.3" height="15.0" fill="rgb(253,53,39)" rx="2" ry="2" />
<text  x="985.18" y="207.5" ></text>
</g>
<g >
<title>roleUpdate(mir2\scenes\main\role\role.lua:1411) (810,119 samples, 47.76%)</title><rect x="81.5" y="149" width="563.6" height="15.0" fill="rgb(236,164,21)" rx="2" ry="2" />
<text  x="84.53" y="159.5" >roleUpdate(mir2\scenes\main\role\role.lua:1411)</text>
</g>
<g >
<title>handler(functions.lua:535) (570 samples, 0.03%)</title><rect x="267.8" y="117" width="0.4" height="15.0" fill="rgb(232,176,38)" rx="2" ry="2" />
<text  x="270.83" y="127.5" ></text>
</g>
<g >
<title>?(mir2\scenes\main\common\helper\util.lua:130) (18,797 samples, 1.11%)</title><rect x="657.6" y="229" width="13.1" height="15.0" fill="rgb(235,84,42)" rx="2" ry="2" />
<text  x="660.59" y="239.5" ></text>
</g>
<g >
<title>getMoveDir(mir2\def\role.lua:305) (231 samples, 0.01%)</title><rect x="670.5" y="181" width="0.2" height="15.0" fill="rgb(209,62,48)" rx="2" ry="2" />
<text  x="673.51" y="191.5" ></text>
</g>
<g >
<title>removeFromParent[C] (494 samples, 0.03%)</title><rect x="690.8" y="197" width="0.3" height="15.0" fill="rgb(215,18,14)" rx="2" ry="2" />
<text  x="693.78" y="207.5" ></text>
</g>
<g >
<title>removeFromParent[C] (347 samples, 0.02%)</title><rect x="982.2" y="181" width="0.3" height="15.0" fill="rgb(234,3,23)" rx="2" ry="2" />
<text  x="985.21" y="191.5" ></text>
</g>
<g >
<title>?(cocos2dx\NodeEx.lua:264) (914,994 samples, 53.94%)</title><rect x="10.6" y="229" width="636.5" height="15.0" fill="rgb(205,204,40)" rx="2" ry="2" />
<text  x="13.60" y="239.5" >?(cocos2dx\NodeEx.lua:264)</text>
</g>
<g >
<title>?(cocos2dx\NodeEx.lua:385) (325 samples, 0.02%)</title><rect x="982.2" y="149" width="0.3" height="15.0" fill="rgb(212,226,54)" rx="2" ry="2" />
<text  x="985.23" y="159.5" ></text>
</g>
<g >
<title>setImg(mir2\single\m2spr.lua:453) (27,960 samples, 1.65%)</title><rect x="986.2" y="197" width="19.5" height="15.0" fill="rgb(247,54,5)" rx="2" ry="2" />
<text  x="989.23" y="207.5" ></text>
</g>
<g >
<title>all (1,696,176 samples, 100%)</title><rect x="10.0" y="245" width="1180.0" height="15.0" fill="rgb(244,164,45)" rx="2" ry="2" />
<text  x="13.00" y="255.5" ></text>
</g>
<g >
<title>update(mir2\scenes\main\ui.lua:80) (2,831 samples, 0.17%)</title><rect x="645.2" y="181" width="1.9" height="15.0" fill="rgb(230,187,17)" rx="2" ry="2" />
<text  x="648.18" y="191.5" ></text>
</g>
<g >
<title>?(cocos2dx\NodeEx.lua:385) (1,704 samples, 0.10%)</title><rect x="321.3" y="53" width="1.2" height="15.0" fill="rgb(208,12,43)" rx="2" ry="2" />
<text  x="324.31" y="63.5" ></text>
</g>
<g >
<title>?(cocos2dx\NodeEx.lua:385) (914,938 samples, 53.94%)</title><rect x="10.6" y="213" width="636.5" height="15.0" fill="rgb(249,11,12)" rx="2" ry="2" />
<text  x="13.64" y="223.5" >?(cocos2dx\NodeEx.lua:385)</text>
</g>
<g >
<title>__create(functions.lua:336) (624 samples, 0.04%)</title><rect x="651.9" y="165" width="0.4" height="15.0" fill="rgb(211,148,29)" rx="2" ry="2" />
<text  x="654.90" y="175.5" ></text>
</g>
<g >
<title>performWithDelay(cocos2dx\NodeEx.lua:65) (529 samples, 0.03%)</title><rect x="668.5" y="197" width="0.4" height="15.0" fill="rgb(240,142,15)" rx="2" ry="2" />
<text  x="671.54" y="207.5" ></text>
</g>
<g >
<title>?(functions.lua:533) (748 samples, 0.04%)</title><rect x="442.3" y="101" width="0.5" height="15.0" fill="rgb(230,48,12)" rx="2" ry="2" />
<text  x="445.27" y="111.5" ></text>
</g>
<g >
<title>remove[builtin:remove] (479 samples, 0.03%)</title><rect x="456.8" y="85" width="0.4" height="15.0" fill="rgb(222,165,19)" rx="2" ry="2" />
<text  x="459.84" y="95.5" ></text>
</g>
<g >
<title>listener_(mir2\scenes\main\console\controller.lua:65) (1,823 samples, 0.11%)</title><rect x="647.8" y="213" width="1.2" height="15.0" fill="rgb(242,61,14)" rx="2" ry="2" />
<text  x="650.76" y="223.5" ></text>
</g>
<g >
<title>addAct(mir2\scenes\main\role\hero.lua:160) (9,588 samples, 0.57%)</title><rect x="693.2" y="197" width="6.7" height="15.0" fill="rgb(215,155,46)" rx="2" ry="2" />
<text  x="696.22" y="207.5" ></text>
</g>
<g >
<title>uptRoleXY(mir2\scenes\main\map\mirmap.lua:689) (11,370 samples, 0.67%)</title><rect x="457.2" y="85" width="7.9" height="15.0" fill="rgb(233,213,29)" rx="2" ry="2" />
<text  x="460.18" y="95.5" ></text>
</g>
<g >
<title>listener_(cocos2dx\NodeEx.lua:147) (235 samples, 0.01%)</title><rect x="322.3" y="37" width="0.2" height="15.0" fill="rgb(226,119,48)" rx="2" ry="2" />
<text  x="325.31" y="47.5" ></text>
</g>
<g >
<title>update(mir2\scenes\main\console\controller.lua:1482) (2,128 samples, 0.13%)</title><rect x="645.5" y="149" width="1.5" height="15.0" fill="rgb(245,106,21)" rx="2" ry="2" />
<text  x="648.47" y="159.5" ></text>
</g>
<g >
<title>removeAllNodeEventListeners(cocos2dx\NodeEx.lua:367) (356 samples, 0.02%)</title><rect x="650.0" y="133" width="0.3" height="15.0" fill="rgb(245,229,48)" rx="2" ry="2" />
<text  x="653.05" y="143.5" ></text>
</g>
<g >
<title>aniUpt(mir2\single\m2spr.lua:549) (215,882 samples, 12.73%)</title><rect x="855.7" y="213" width="150.2" height="15.0" fill="rgb(206,224,53)" rx="2" ry="2" />
<text  x="858.71" y="223.5" >aniUpt(mir2\single\..</text>
</g>
<g >
<title>allExecuteEnd(mir2\scenes\main\role\hero.lua:195) (10,616 samples, 0.63%)</title><rect x="449.3" y="85" width="7.4" height="15.0" fill="rgb(223,142,19)" rx="2" ry="2" />
<text  x="452.31" y="95.5" ></text>
</g>
<g >
<title>?(mir2\scenes\main\common\magic.lua:453) (1,190 samples, 0.07%)</title><rect x="690.5" y="229" width="0.8" height="15.0" fill="rgb(239,129,30)" rx="2" ry="2" />
<text  x="693.47" y="239.5" ></text>
</g>
<g >
<title>addObj(mir2\scenes\main\common\magic.lua:61) (307 samples, 0.02%)</title><rect x="982.7" y="181" width="0.2" height="15.0" fill="rgb(213,4,40)" rx="2" ry="2" />
<text  x="985.65" y="191.5" ></text>
</g>
<g >
<title>executeSound(mir2\scenes\main\role\role.lua:1079) (2,215 samples, 0.13%)</title><rect x="261.1" y="117" width="1.6" height="15.0" fill="rgb(209,200,28)" rx="2" ry="2" />
<text  x="264.11" y="127.5" ></text>
</g>
<g >
<title>showSpellEffect(mir2\scenes\main\common\magic.lua:542) (3,735 samples, 0.22%)</title><rect x="320.6" y="117" width="2.6" height="15.0" fill="rgb(246,116,31)" rx="2" ry="2" />
<text  x="323.62" y="127.5" ></text>
</g>
<g >
<title>?(cocos2dx\NodeEx.lua:274) (1,381 samples, 0.08%)</title><rect x="653.2" y="165" width="1.0" height="15.0" fill="rgb(249,20,45)" rx="2" ry="2" />
<text  x="656.24" y="175.5" ></text>
</g>
<g >
<title>addAct(mir2\scenes\main\role\hero.lua:160) (11,003 samples, 0.65%)</title><rect x="682.1" y="181" width="7.7" height="15.0" fill="rgb(214,8,40)" rx="2" ry="2" />
<text  x="685.10" y="191.5" ></text>
</g>
<g >
<title>addTexQueue(mir2\single\m2spr.lua:138) (1,183 samples, 0.07%)</title><rect x="1004.9" y="165" width="0.8" height="15.0" fill="rgb(220,174,49)" rx="2" ry="2" />
<text  x="1007.86" y="175.5" ></text>
</g>
<g >
<title>?(an\ui\label.lua:111) (858 samples, 0.05%)</title><rect x="10.0" y="229" width="0.6" height="15.0" fill="rgb(232,187,38)" rx="2" ry="2" />
<text  x="13.00" y="239.5" ></text>
</g>
<g >
<title>checkExist(an\funcs.lua:10) (520 samples, 0.03%)</title><rect x="656.9" y="165" width="0.3" height="15.0" fill="rgb(224,191,12)" rx="2" ry="2" />
<text  x="659.85" y="175.5" ></text>
</g>
<g >
<title>addAct(mir2\scenes\main\role\role.lua:1225) (5,880 samples, 0.35%)</title><rect x="695.8" y="181" width="4.1" height="15.0" fill="rgb(238,79,40)" rx="2" ry="2" />
<text  x="698.80" y="191.5" ></text>
</g>
<g >
<title>play(mir2\single\sound.lua:80) (1,359 samples, 0.08%)</title><rect x="656.4" y="197" width="1.0" height="15.0" fill="rgb(230,163,6)" rx="2" ry="2" />
<text  x="659.45" y="207.5" ></text>
</g>
<g >
<title>hideEvent(mir2\scenes\main\map\mirmap.lua:1077) (164 samples, 0.01%)</title><rect x="651.7" y="181" width="0.1" height="15.0" fill="rgb(220,116,21)" rx="2" ry="2" />
<text  x="654.69" y="191.5" ></text>
</g>
<g >
<title>resGetTex(mir2\single\res.lua:454) (3,176 samples, 0.19%)</title><rect x="1051.6" y="213" width="2.2" height="15.0" fill="rgb(243,120,21)" rx="2" ry="2" />
<text  x="1054.63" y="223.5" ></text>
</g>
<g >
<title>removeSelf(cocos2dx\NodeEx.lua:117) (1,756 samples, 0.10%)</title><rect x="649.2" y="197" width="1.2" height="15.0" fill="rgb(233,59,54)" rx="2" ry="2" />
<text  x="652.17" y="207.5" ></text>
</g>
<g >
<title>sendMove(mir2\scenes\main\console\controller.lua:778) (1,596 samples, 0.09%)</title><rect x="645.8" y="101" width="1.1" height="15.0" fill="rgb(216,184,34)" rx="2" ry="2" />
<text  x="648.80" y="111.5" ></text>
</g>
<g >
<title>removeOldEnemy(mir2\scenes\main\role\role.lua:1595) (25,007 samples, 1.47%)</title><rect x="525.4" y="133" width="17.4" height="15.0" fill="rgb(212,188,28)" rx="2" ry="2" />
<text  x="528.38" y="143.5" ></text>
</g>
<g >
<title>addAct(mir2\scenes\main\role\role.lua:1225) (592 samples, 0.03%)</title><rect x="670.1" y="165" width="0.4" height="15.0" fill="rgb(221,88,37)" rx="2" ry="2" />
<text  x="673.09" y="175.5" ></text>
</g>
<g >
<title>_showEvents(mir2\scenes\main\common\helper\dummy.lua:620) (2,521 samples, 0.15%)</title><rect x="650.8" y="213" width="1.7" height="15.0" fill="rgb(238,185,32)" rx="2" ry="2" />
<text  x="653.79" y="223.5" ></text>
</g>
<g >
<title>pos(shortcodes.lua:116) (1,033 samples, 0.06%)</title><rect x="465.2" y="117" width="0.7" height="15.0" fill="rgb(254,122,14)" rx="2" ry="2" />
<text  x="468.22" y="127.5" ></text>
</g>
<g >
<title>remove[builtin:remove] (150 samples, 0.01%)</title><rect x="259.9" y="101" width="0.1" height="15.0" fill="rgb(232,80,15)" rx="2" ry="2" />
<text  x="262.94" y="111.5" ></text>
</g>
<g >
<title>allExecuteEnd(mir2\scenes\main\role\hero.lua:195) (3,983 samples, 0.23%)</title><rect x="257.1" y="101" width="2.7" height="15.0" fill="rgb(208,18,20)" rx="2" ry="2" />
<text  x="260.07" y="111.5" ></text>
</g>
<g >
<title>findRoleWithPos(mir2\scenes\main\map\mirmap.lua:553) (621 samples, 0.04%)</title><rect x="654.5" y="197" width="0.4" height="15.0" fill="rgb(208,106,14)" rx="2" ry="2" />
<text  x="657.51" y="207.5" ></text>
</g>
<g >
<title>getMapPos(mir2\scenes\main\map\mirmap.lua:328) (276 samples, 0.02%)</title><rect x="323.0" y="101" width="0.1" height="15.0" fill="rgb(211,204,34)" rx="2" ry="2" />
<text  x="325.95" y="111.5" ></text>
</g>
<g >
<title>remove[builtin:remove] (1,223 samples, 0.07%)</title><rect x="465.9" y="117" width="0.9" height="15.0" fill="rgb(244,229,32)" rx="2" ry="2" />
<text  x="468.94" y="127.5" ></text>
</g>
<g >
<title>addChild[C] (1,381 samples, 0.08%)</title><rect x="653.2" y="181" width="1.0" height="15.0" fill="rgb(227,8,16)" rx="2" ry="2" />
<text  x="656.24" y="191.5" ></text>
</g>
<g >
<title>stopAnimation(mir2\single\m2spr.lua:519) (308 samples, 0.02%)</title><rect x="1005.7" y="197" width="0.2" height="15.0" fill="rgb(231,74,10)" rx="2" ry="2" />
<text  x="1008.68" y="207.5" ></text>
</g>
<g >
<title>handler(mir2\single\sound.lua:366) (901 samples, 0.05%)</title><rect x="656.6" y="181" width="0.6" height="15.0" fill="rgb(217,31,17)" rx="2" ry="2" />
<text  x="659.59" y="191.5" ></text>
</g>
<g >
<title>?(mir2\scenes\main\role\hero.lua:197) (12,731 samples, 0.75%)</title><rect x="691.3" y="229" width="8.9" height="15.0" fill="rgb(230,109,50)" rx="2" ry="2" />
<text  x="694.33" y="239.5" ></text>
</g>
<g >
<title>addAction(mir2\scenes\main\role\role.lua:947) (200 samples, 0.01%)</title><rect x="243.2" y="117" width="0.1" height="15.0" fill="rgb(244,171,24)" rx="2" ry="2" />
<text  x="246.18" y="127.5" ></text>
</g>
<g >
<title>playAct(mir2\scenes\main\common\helper\dummy.lua:916) (425 samples, 0.03%)</title><rect x="659.7" y="181" width="0.3" height="15.0" fill="rgb(209,174,38)" rx="2" ry="2" />
<text  x="662.72" y="191.5" ></text>
</g>
<g >
<title>addNodeEventListener(cocos2dx\NodeEx.lua:289) (243 samples, 0.01%)</title><rect x="652.1" y="117" width="0.2" height="15.0" fill="rgb(243,184,26)" rx="2" ry="2" />
<text  x="655.10" y="127.5" ></text>
</g>
<g >
<title>onCleanup(mir2\single\m2spr.lua:339) (191 samples, 0.01%)</title><rect x="986.0" y="117" width="0.1" height="15.0" fill="rgb(221,117,22)" rx="2" ry="2" />
<text  x="989.02" y="127.5" ></text>
</g>
<g >
<title>play(mir2\single\sound.lua:83) (245 samples, 0.01%)</title><rect x="657.2" y="181" width="0.2" height="15.0" fill="rgb(221,227,29)" rx="2" ry="2" />
<text  x="660.22" y="191.5" ></text>
</g>
<g >
<title>executeAct(mir2\scenes\main\role\role.lua:1098) (32,043 samples, 1.89%)</title><rect x="442.8" y="101" width="22.3" height="15.0" fill="rgb(223,199,25)" rx="2" ry="2" />
<text  x="445.79" y="111.5" >e..</text>
</g>
<g >
<title>isExecuteFast(mir2\scenes\main\role\role.lua:1048) (6,168 samples, 0.36%)</title><rect x="268.2" y="117" width="4.3" height="15.0" fill="rgb(236,57,11)" rx="2" ry="2" />
<text  x="271.22" y="127.5" ></text>
</g>
<g >
<title>play(mir2\single\sound.lua:83) (371 samples, 0.02%)</title><rect x="262.4" y="85" width="0.2" height="15.0" fill="rgb(250,127,51)" rx="2" ry="2" />
<text  x="265.39" y="95.5" ></text>
</g>
<g >
<title>playAct(mir2\scenes\main\common\helper\dummy.lua:916) (25,491 samples, 1.50%)</title><rect x="672.5" y="213" width="17.8" height="15.0" fill="rgb(228,153,19)" rx="2" ry="2" />
<text  x="675.55" y="223.5" ></text>
</g>
<g >
<title>fixTilePos(mir2\scenes\main\map\mirmap.lua:316) (312 samples, 0.02%)</title><rect x="267.2" y="101" width="0.3" height="15.0" fill="rgb(234,144,1)" rx="2" ry="2" />
<text  x="270.24" y="111.5" ></text>
</g>
<g >
<title>addto(an\overwrite\shortcodes.lua:5) (1,443 samples, 0.09%)</title><rect x="653.2" y="197" width="1.0" height="15.0" fill="rgb(225,165,50)" rx="2" ry="2" />
<text  x="656.20" y="207.5" ></text>
</g>
<g >
<title>addAct(mir2\scenes\main\role\hero.lua:160) (179 samples, 0.01%)</title><rect x="659.9" y="149" width="0.1" height="15.0" fill="rgb(222,141,13)" rx="2" ry="2" />
<text  x="662.88" y="159.5" ></text>
</g>
<g >
<title>setBlend(mir2\single\m2spr.lua:395) (637 samples, 0.04%)</title><rect x="320.0" y="85" width="0.4" height="15.0" fill="rgb(210,117,29)" rx="2" ry="2" />
<text  x="322.96" y="95.5" ></text>
</g>
<g >
<title>getinfo(mir2\single\res.lua:333) (52,423 samples, 3.09%)</title><rect x="1005.9" y="213" width="36.5" height="15.0" fill="rgb(243,51,5)" rx="2" ry="2" />
<text  x="1008.89" y="223.5" >get..</text>
</g>
<g >
<title>processMsg(mir2\scenes\main\role\role.lua:1272) (14,135 samples, 0.83%)</title><rect x="679.9" y="197" width="9.9" height="15.0" fill="rgb(206,209,16)" rx="2" ry="2" />
<text  x="682.92" y="207.5" ></text>
</g>
<g >
<title>?(cocos2dx\NodeEx.lua:385) (2,702 samples, 0.16%)</title><rect x="647.1" y="229" width="1.9" height="15.0" fill="rgb(216,125,22)" rx="2" ry="2" />
<text  x="650.15" y="239.5" ></text>
</g>
<g >
<title>playSound(audio.lua:294) (149 samples, 0.01%)</title><rect x="657.3" y="165" width="0.1" height="15.0" fill="rgb(228,87,46)" rx="2" ry="2" />
<text  x="660.28" y="175.5" ></text>
</g>
<g >
<title>__removeNodeEventListenersByEvent(cocos2dx\NodeEx.lua:336) (237 samples, 0.01%)</title><rect x="650.1" y="117" width="0.2" height="15.0" fill="rgb(253,223,41)" rx="2" ry="2" />
<text  x="653.13" y="127.5" ></text>
</g>
</g>
</svg>
